<?xml version="1.0" encoding="UTF-8"?><svg id="a" xmlns="http://www.w3.org/2000/svg" viewBox="0 0 576 514.58"><path d="M239.88,194.29c-1.19-8.85,1.81-16.13,8.4-22.09-.35-.9-1.18-1.27-1.86-1.78-8.53-6.34-17.07-12.66-25.59-19.01-.84-.63-2.3-1.09-1.89-2.42,.34-1.11,1.72-1.01,2.73-1.04,2.75-.08,4.64-1.43,6.42-3.48,9.21-10.62,18.54-21.15,27.86-31.68,.8-.9,1.22-1.79,1.11-3-.18-2.08,.15-4.15,.46-6.2,.15-1-.04-1.68-.89-2.24-2.03-1.34-3.13-3.34-3.91-5.59-.88-2.57-1.85-5.11-2.78-7.66-.22-.6-.47-1.2-.62-1.81-.84-3.47,.79-5.68,4.34-5.83,2.32-.1,4.65-.17,6.78,1.04,.54,.31,.98,.27,1.55-.04,3.12-1.69,6.33-1.29,9.48-.13,.91,.33,1.6,.54,2.39-.15,.28-.25,.72-.33,1.09-.45,2.29-.71,2.32-.71,2.28-3.19-.03-2.05,.16-4.11-.14-6.16-1.03-.18-1.32,.65-1.81,1.08-3.03,2.65-6.35,4.53-10.53,4.5-7.57-.06-13-6.79-12.44-14.09,.22-2.84,1.23-5.44,2.85-7.79,1.08-1.57,1.08-1.59-.25-3.14-3.41-3.96-4.3-8.49-2.82-13.43,1.67-5.57,6.03-8.71,12.26-8.87,1.21-.03,1.61-.31,1.72-1.57,.43-5.19,4.44-8.05,9.56-6.94,.22,.05,.46,.06,.86,.11,.45-2.94,1.62-5.45,4.22-7.13,1.98-1.28,4.13-1.61,6.42-1.45,4.35,.31,7.41,3.41,8.35,8.46,.65,.35,1.2-.16,1.8-.24,4.49-.59,8.22,2.39,8.61,6.92q.15,1.76,1.92,1.81c5.36,.15,9.37,2.49,11.57,7.46,2.28,5.15,1.47,9.97-1.91,14.41-.24,.32-.5,.63-.81,.88-.87,.68-.85,1.3-.19,2.21,2.12,2.91,3.34,6.14,3.25,9.82-.22,9.33-9.63,15.23-18.12,11.34-2.21-1.01-4.1-2.47-5.77-4.21-.21-.22-.4-.49-.98-.49-.23,3.29-.13,6.59-.05,9.9,.02,.88,.69,1.02,1.38,.64,3.28-1.83,6.6-1.47,9.9-.12,.74,.3,1.24,.24,1.98-.1,5.05-2.32,12.27-.6,14.53,5.61,1.12,3.08,2.25,6.15,3.37,9.23,.16,.45,.34,.9,.44,1.37,.71,3.4-.84,5.43-4.31,5.67-.32,.02-.64,.03-.96,0-1.03-.08-1.36,.45-1.44,1.42-.4,4.46-.56,8.94-.28,13.41,.34,5.35,.46,10.7,.31,16.05-.08,2.9-.75,5.7-1.89,8.36-.36,.83-.6,1.62-.44,2.54,.72,4.09,1.46,8.17,2.07,12.28,.22,1.5,.85,2.34,2.22,3.02,4.77,2.38,8.5,5.92,11,10.67,3.99,7.58,3.17,14.76-1.82,21.59-.41,.56-1.04,.97-1.26,1.84,.68,.34,1.4,.2,2.07,.2,7.67,.01,15.35,0,23.02,0,2.28,0,2.34,0,2.7,2.26,1.54,9.7,3.08,19.39,4.56,29.1,1.06,6.94,2.05,13.9,3.03,20.85,.94,6.72,1.73,13.46,2.31,20.23,.56,6.53,.98,13.06,.86,19.62-.14,7.62-.97,15.14-3.38,22.41-2.97,8.96-8.33,16.29-15.31,22.53-8.15,7.29-17.42,12.96-26.84,18.4-11.42,6.59-23.12,12.65-34.75,18.85-1.08,.58-1.99,.97-3.31,.26-12.36-6.7-24.88-13.1-37.02-20.2-7.73-4.52-15.33-9.25-22.25-14.97-9.02-7.45-15.93-16.33-18.92-27.88-1.19-4.57-1.88-9.22-2.22-13.93-.78-10.97,.19-21.86,1.37-32.75,1.71-15.8,4.19-31.49,6.72-47.18,.83-5.12,1.62-10.25,2.44-15.37,.36-2.23,.37-2.24,2.71-2.24,6.63,0,13.27,0,19.9-.01,.86,0,1.76,.23,2.6-.3Zm61.62-56.88c-.02-.06-.02-.12-.06-.17-.02-.02-.08-.02-.12-.02l.22,.16c-.03,.31-.13,.64-.08,.94,.97,5.82,1.97,11.63,2.92,17.45,.18,1.1,.87,1.15,1.72,1.17,2.31,.03,4.62-.05,6.92,.44,2.02,.43,2.21,.23,1.89-1.91-.42-2.84-1.01-5.65-1.39-8.5-.16-1.26-.69-1.99-1.8-2.56-3.07-1.57-5.84-3.59-8.45-5.84-.53-.46-.98-1.07-1.76-1.15Zm61.6,142.94c.06-3.15-.31-8.33-.72-13.51-.26-3.34-.74-6.67-1-10.01-.18-2.29-1.38-3.78-3.14-5.08-2.95-2.18-8.8-2.82-12.75,.5-1.56,1.31-1.62,1.24-3.13,.07-4.24-3.27-9.11-3.28-13.48-.02-1.54,1.15-1.64,1.26-2.93,.09-3.51-3.18-9.98-3.48-13.85,.15-.93,.87-1.66,.88-2.61-.01-3.76-3.53-10.08-3.49-13.82-.09-1.05,.95-1.76,1.02-2.8,.03-3.55-3.37-9.99-3.51-13.82,.04-.9,.83-1.62,1-2.61,.06-3.78-3.58-10.03-3.45-13.85-.2-1.35,1.14-1.46,1.14-2.9-.06-3.82-3.18-9.79-3.16-13.51,0-1.49,1.26-1.55,1.19-3.13-.02-3.94-3.02-8.73-3.21-12.7-.49-.72,.49-1.37,1.32-2.14,1.46-.97,.17-1.57-.94-2.34-1.47-4.5-3.04-10.29-2.38-13.94,1.63-.61,.67-1.01,1.36-1.12,2.3-1.06,9.61-2.04,19.22-1.94,28.91,.07,6.17,.66,12.27,1.97,18.3,2.06,9.53,6.57,17.58,14.11,23.88,3.5,2.92,7.03,5.8,10.76,8.41,15.49,10.84,32.17,19.63,48.96,28.23,1.33,.68,2.27,.2,3.34-.35,8.72-4.53,17.47-8.99,25.99-13.9,10.88-6.26,21.51-12.89,31.27-20.86,8.16-6.66,13.63-14.84,15.85-25.23,1.46-6.85,1.98-13.74,1.95-22.75Zm-3.2-31.73c.34-.97,.17-1.69,.08-2.39-.48-3.56-.97-7.11-1.53-10.66-1.72-11.03-3.42-22.07-5.23-33.09-.55-3.32-.14-2.79-3.19-2.79-23.25-.02-46.5,.02-69.75-.05-2.57,0-4.88,.25-6.86,2.03-.46,.42-1.09,.66-1.65,.97-5.66,3.09-11.73,3.42-17.94,2.6-3.95-.52-7.6-1.86-10.45-4.84-.55-.57-1.17-.74-1.93-.74-6.87,.01-13.74,.03-20.61,0-1.19,0-1.7,.42-1.85,1.62-.29,2.45-.71,4.89-1.09,7.34-1.85,11.82-3.73,23.64-5.51,35.47-.21,1.42-.71,2.88-.44,4.4,.32-.05,.49-.04,.62-.11,4.8-2.57,9.62-2.7,14.39,0,1.04,.59,1.77,.27,2.65-.2,4.59-2.43,9.2-2.4,13.73,.1,1.08,.6,1.78,.46,2.78-.08,4.29-2.32,8.72-2.47,13.08-.25,1.43,.73,2.47,.81,3.95,.04,4.33-2.26,8.78-2.14,13.07,.18,1.1,.59,1.84,.69,3,.04,4.35-2.4,8.86-2.47,13.29-.16,1.26,.66,2.22,.73,3.51,.04,4.5-2.4,9.05-2.27,13.49,.2,.95,.53,1.6,.55,2.58,0,4.52-2.49,9.16-2.62,13.71-.13,1.25,.68,2.15,.52,3.3-.09,4.51-2.39,9.05-2.25,13.49,.21,.94,.52,1.59,.55,2.58,.01,4.43-2.45,8.96-2.57,13.52-.28,.35,.17,.7,.34,1.22,.59Zm-131.63-97.19c.56,.92,1.45,1.34,2.2,1.9,8.71,6.49,17.45,12.95,26.18,19.43,.51,.38,1.06,.73,1.5,1.19,.84,.86,.88,1.95,.13,2.79-.71,.81-1.58,1.08-2.56,.47-.61-.38-1.18-.82-1.76-1.24-1.68-1.23-1.89-1.29-3.46,.13-4.36,3.95-6.75,8.85-6.68,14.8,.06,4.3,2.26,7.23,6.13,8.9,4.48,1.93,9.19,1.97,13.89,1.16,5.78-1,10.19-4.38,14.01-8.64,2.51-2.8,4.7-5.85,6.93-8.88,2.56-3.47,5.16-6.91,8.28-9.93,7.53-7.27,17.66-7.32,24.66-3.96,3.47,1.66,6.03,4.29,7,8.07,1.8,6.97-1.99,12.1-8.91,12.48-1.7,.09-3.36-.16-4.99-.55-4.97-1.2-9.02-3.98-12.47-7.68-1.02-1.1-.98-2.33-.05-3.18,.91-.84,2.01-.73,3.17,.32,.35,.32,.68,.67,1.02,1.02,1.41,1.44,3.02,2.62,4.76,3.61,2.69,1.53,5.57,2.4,8.7,2.21,3.85-.24,5.97-3.4,4.77-7.08-.88-2.69-2.75-4.53-5.26-5.59-5.39-2.28-10.72-2.14-15.87,.79-2.82,1.61-4.98,3.98-7.15,6.33-.87,.94-.65,1.6,.2,2.4,2.66,2.55,5.44,4.95,8.48,7.03,3.71,2.55,7.63,4.68,12.13,5.48,5.79,1.04,10.64-.61,14.22-5.3,3.55-4.65,4.75-9.79,2.07-15.27-4.36-8.89-11.85-13.11-21.49-13.69-6.6-.4-12.8,1.41-18.77,4.12-8.01,3.63-15.02,8.75-21.62,14.49-.78,.68-1.56,1.38-2.4,1.98-.84,.61-1.71,.36-2.39-.31-.75-.75-1-1.67-.33-2.59,.37-.51,.86-.95,1.33-1.37,6.72-5.96,13.93-11.22,22.05-15.17,1.99-.97,2.04-.99,1.69-3.26-.78-4.97-1.65-9.92-2.43-14.88-.18-1.18-.81-1.43-1.83-1.26-1.81,.3-3.62,.6-5.43,.88-14.99,2.29-29.98,4.54-44.95,6.9-1.53,.24-3.19,.1-4.69,.97Zm53.16-80.71c0,2.64,0,5.27,0,7.91,.01,2.61,1.63,3.64,3.93,2.5,.88-.43,1.8-.63,2.76-.69,2.36-.14,2.37-.15,2.37-2.59,0-4.63,0-9.27,0-13.9,0-.56,0-1.12,.01-1.68,.03-.8,.02-1.73,.96-1.98,.93-.25,1.38,.61,1.87,1.22,.2,.25,.34,.54,.53,.8,1.02,1.33,1.98,2.71,3.09,3.97,2.03,2.3,4.41,4.17,7.4,5.1,4.37,1.36,8.23-.66,9.65-5.02,1.04-3.2,.29-6.15-1.24-8.98-.57-1.06-1.35-1.97-2.12-2.9-1.11-1.34-1.03-1.82,.3-2.98,.42-.37,.9-.66,1.34-1.01,1.53-1.22,2.66-2.75,3.35-4.58,2.19-5.82-1.69-11.61-7.9-11.81-2.28-.08-4.44,.38-6.48,1.41-.64,.32-1.29,.64-1.95,.91-.57,.24-1.12,.16-1.47-.4-.3-.48-.09-.93,.24-1.31,.53-.6,1.12-1.14,1.64-1.74,1.12-1.3,1.96-2.73,1.95-4.51-.02-1.91-1.14-3.14-3.04-3.35-1.79-.2-3.28,.49-4.64,1.56-.5,.39-.95,.86-1.46,1.24-.31,.23-.69,.44-1.11,.24-.54-.26-.52-.8-.42-1.25,.22-1.09,.57-2.16,.77-3.26,.72-4.04-1.51-6.74-5.58-6.8-.64,0-1.28,.02-1.91,.13-2.22,.38-3.7,1.94-3.96,4.18-.16,1.36-.1,2.72,.29,4.04,.21,.7,.39,1.39,.36,2.11-.04,.9-.48,1.19-1.22,.73-.6-.38-1.12-.9-1.69-1.33-1.16-.87-2.39-1.58-3.91-1.62-2.85-.08-4.49,1.98-3.67,4.72,.42,1.4,1.29,2.55,2.22,3.66,.66,.8,2.23,1.5,1.27,2.68-.9,1.12-2.04-.15-2.98-.58-2.53-1.17-5.14-1.76-7.91-1.37-2.59,.36-4.65,1.63-6.01,3.9-2.07,3.45-1.61,7.73,1.16,10.89,.9,1.03,2,1.82,3.04,2.71,1.1,.94,1.09,1.49,.21,2.64-.63,.83-1.34,1.6-1.88,2.47-1.73,2.82-2.54,5.83-1.73,9.14,.92,3.75,3.84,5.95,7.7,5.81,2.07-.08,3.87-.9,5.55-2.03,2.83-1.9,4.98-4.46,6.89-7.25,.41-.59,.78-1.22,1.29-1.72,.94-.92,1.78-.65,2.04,.62,.11,.54,.09,1.11,.09,1.67,0,2.56,0,5.11,0,7.67Zm33.99,48.37c-.07-5.03-.21-10.06,0-15.09,0-.16,.02-.32,.01-.48-.06-1.57-.49-1.89-1.85-1.19-.87,.45-1.77,.79-2.72,.84-2.32,.13-4.64,.17-6.81-.88-.57-.28-1.08-.51-1.78-.13-3.1,1.68-6.29,1.35-9.47,.2-.58-.21-1.08-.71-1.78-.31-3.35,1.91-6.73,1.47-10.11,.1-.55-.22-.98-.3-1.56,0-3.11,1.68-6.29,1.34-9.47,.21-.57-.2-1.11-.83-1.76-.32-1.58,1.22-3.42,1.19-5.26,1.16-.76-.01-1.18,.27-1.25,1.09-.13,1.51-.4,3.01-.32,4.53,.11,2.06,.26,2.21,2.25,2.06,6.45-.5,12.54,.72,18.27,3.71,4.14,2.16,7.77,5.03,11.14,8.23,4.05,3.85,8.04,7.77,12.08,11.63,2.2,2.1,4.58,3.98,7.21,5.52,1.8,1.05,1.98,1,2.48-1.08,.39-1.63,.67-3.28,.72-4.96,.16-4.95,.05-9.9-.02-14.86Zm-64.25,16.26l.26,.41c10.01-1.45,20.01-2.95,30.04-4.32,1.79-.25,2.87-.99,3.58-2.59,.51-1.16,1.25-2.23,1.87-3.34,.99-1.76,1-1.78-.66-3.08-4.4-3.46-9.29-5.8-14.85-6.82-1.78-.33-2.8,.11-3.91,1.37-4.27,4.86-8.62,9.64-12.93,14.46-1.15,1.29-2.27,2.61-3.41,3.92Zm39.27-9.13c-1.18,2.05-2.21,3.84-3.25,5.63-.38,.65-.47,1.29-.34,2.06,1.39,8.1,2.74,16.2,4.11,24.31,.26,1.56,.29,1.58,1.82,1.1,2.21-.7,4.43-1.35,6.71-1.77,1.62-.3,1.72-.4,1.45-2.02-1.24-7.31-2.52-14.62-3.76-21.94-.1-.58-.29-1.08-.7-1.48-1.95-1.88-3.69-3.96-6.03-5.89Zm-57.92,19.55c.84,.51,1.48,.29,2.08,.2,4.57-.69,9.14-1.42,13.71-2.12,7.8-1.2,15.61-2.39,23.41-3.59,3.7-.57,7.4-1.21,11.11-1.74,1.17-.17,1.55-.63,1.12-1.73-.08-.22-.14-.47-.13-.7,0-1.27-.53-1.65-1.81-1.39-1.79,.37-3.63,.55-5.44,.82-7.1,1.04-14.2,2.1-21.31,3.13-3.53,.51-7.06,.99-10.94,1.54v-7.21l-.46-.09c-3.77,4.29-7.53,8.57-11.34,12.91Zm86.57-46.77c.24,0,.48,0,.72,0,2.28-.07,2.67-.6,1.89-2.81-1.06-3.01-2.2-5.98-3.25-8.99-.61-1.75-1.83-2.53-3.63-2.51-.48,0-.96,0-1.44,0-2.4,.05-2.81,.62-2.01,2.95,.91,2.64,1.87,5.25,2.82,7.88,1.06,2.94,1.84,3.48,4.9,3.49Zm-34.49,0c.16,0,.32,0,.48,0,2.58-.04,3.02-.6,2.18-3-1.03-2.93-2.11-5.85-3.18-8.77-.62-1.68-1.79-2.59-3.63-2.55-.56,.01-1.12-.01-1.68,0-2.15,.07-2.58,.63-1.89,2.64,.96,2.79,1.98,5.55,2.99,8.33,1.03,2.84,1.73,3.33,4.73,3.34Zm-16.56-14.32c-3.13,0-3.46,.42-2.43,3.3,.88,2.48,1.79,4.95,2.71,7.41,1.25,3.34,1.73,3.66,5.25,3.61,2.68-.03,3.06-.58,2.13-3.2-.93-2.63-1.9-5.24-2.88-7.86-1.05-2.82-1.71-3.26-4.78-3.26Zm39.39,14.32c.24,0,.48,0,.72,0,2.46-.05,2.86-.57,2.05-2.88-1-2.86-2.02-5.71-3.09-8.54-.9-2.39-1.69-2.87-4.31-2.9-.32,0-.64,0-.96,0-2.26,.06-2.75,.67-2.02,2.79,.96,2.79,2.01,5.54,3.04,8.3,1.01,2.72,1.72,3.21,4.57,3.22Zm-11.39,0c.4,0,.8,.02,1.2,0,1.71-.11,2.24-.72,1.7-2.27-1.13-3.32-2.35-6.61-3.59-9.89-.53-1.4-1.66-2.1-3.16-2.14-.64-.02-1.28-.02-1.91,0-2.22,.06-2.66,.7-1.9,2.85,.96,2.7,1.97,5.39,2.96,8.08,1.04,2.86,1.74,3.37,4.7,3.38Zm-34.39,0c3.21,0,3.55-.46,2.49-3.47-.95-2.7-1.96-5.39-2.9-8.1-.52-1.49-1.44-2.48-3.02-2.71-.7-.11-1.43-.05-2.15-.04-2.47,.05-2.88,.59-2.08,2.87,.98,2.78,1.99,5.55,3.02,8.31,.99,2.66,1.72,3.13,4.64,3.13Zm38.88,95.45c-1.79-1.3-3.16-2.27-4.5-3.27-2.24-1.68-4.32-3.54-6.36-5.45-.42-.39-.78-.83-1.32-.1-2.12,2.86-4.27,5.7-6.6,8.82h18.79Zm-36.13-79.03c-3.27-.43-5.56-.04-7.43,2.44-2.2,2.93-4.64,5.72-7.29,8.25-2.23,2.14-2.19,4.51-1.79,7.69,5.6-6.24,10.89-12.13,16.5-18.39Z"/><path d="M407.21,148.36c4.35,3.24,8.21,6.57,11.65,10.37,3.83,4.22,7.22,8.75,9.43,14.07,1.77,4.28,2.58,8.62,1.87,13.32-.63,4.19-.1,8.45,.53,12.65,.75,4.97,1.75,9.9,2.39,14.9,.25,1.99,.24,3.99,.39,5.97,.31,4.13-1.57,7.23-4.5,9.85-2.58,2.31-5.51,4.09-8.55,5.71-5.99,3.2-12.23,5.9-18.15,9.23-.6,.34-1.29,.57-1.79,1.2,1.14,.78,2.44,.95,3.62,1.42,4.68,1.85,8.89,4.37,11.96,8.48,3.3,4.42,4.25,9.22,2.23,14.45-1.05,2.72-.82,5.53-.54,8.29,.33,3.25,.89,6.48,1.47,9.7,.4,2.23,.46,4.46,.29,6.69-.2,2.66-1.46,4.87-3.28,6.76-2.48,2.57-5.56,4.28-8.71,5.86-5.81,2.92-12.06,4.65-18.24,6.55-4.89,1.5-9.74,3.1-14.37,5.28-.91,.43-1.93,1.18-2.88,.32-.85-.77-.24-1.83-.01-2.72,1.92-7.43,5.72-13.84,10.88-19.46,1.84-2,3.78-3.9,5.89-5.63,3.47-2.84,4.05-6.55,2.94-10.6-1.01-3.71-3.64-6.34-6.48-8.72-1.96-1.64-4.05-3.12-6.06-4.7-5.67-4.45-8.65-10.3-9.14-17.48-.72-10.51,2.8-19.42,9.99-27.01,5.28-5.57,11.57-9.79,18.06-13.76,.75-.46,1.46-1.01,2.26-1.34,2.07-.85,2.91-2.47,3.39-4.55,1.12-4.87-.03-9.35-2.1-13.69-1.98-4.15-4.79-7.74-7.84-11.14-3.86-4.28-8.13-8.14-12.51-11.88-1.03-.88-1.87-1.12-3.19-.58-12.73,5.19-26.02,8.14-39.62,9.9-1.24,.16-1.99-.03-2.21-1.39-.13-.78-.44-1.52-.72-2.43,2.28-.94,4.7-.85,7-1.23,14.72-2.43,29.07-6.07,42.55-12.66,7.59-3.71,14.6-8.26,20.47-14.41,8.51-8.92,12.92-19.49,12.51-31.89-.18-5.44-2.28-10.13-6.52-13.64-4.54-3.76-9.66-4.12-15.11-2.21,.06,.37,.04,.63,.14,.83,3.78,7.57,3.22,15.17-.03,22.68-3.19,7.37-9.07,12.24-15.86,16.12-8.06,4.6-16.82,7.29-25.84,9.21-8.45,1.8-16.99,2.89-25.61,3.42-2.47,.15-4.94,.39-7.42,.41-1.81,.02-1.68-.04-2.17-1.7-.52-1.76-.1-2.87,1.31-4.11,5.2-4.61,7.34-10.73,7.86-17.46,.32-4.14,.25-8.3-.32-12.44-.14-1.05-.67-2.52,.42-3.13,1.28-.72,2.13,.7,2.95,1.46,3.58,3.31,7.09,6.7,9.75,10.85,3.78,5.9,5.15,12.15,2.71,18.94-.11,.29-.12,.62-.16,.93,0,.06,.06,.13,.18,.34,3.58-.32,7.13-1.15,10.71-1.86,.75-.15,.88-.61,.57-1.23-.43-.86-.9-1.69-1.34-2.54-3.45-6.63-5.51-13.63-5.25-21.16,.65-18.43,15.49-31.33,30.67-32.65,5.57-.49,10.81,.47,15.82,2.86,4.9,2.34,9.84,4.61,14.68,7.07,7.73,3.92,11.83,10.34,12.11,18.98,.4,12.56-3.84,23.5-12.1,32.91-.94,1.08-1.9,2.14-3.04,3.42Zm18.85,46.49c-2.05,1.9-3.59,3.63-5.41,5.07-4.57,3.65-9.58,6.63-14.58,9.61-7,4.16-14.05,8.24-20.17,13.71-7.16,6.4-11.63,14.14-11.77,23.96-.05,3.86,.38,7.67,2.41,11.08,.91,1.52,1.84,3.08,3.57,4.15,1.03-3.77,2.69-7,5.02-9.91,3.66-4.57,8.38-7.82,13.33-10.78,5.83-3.49,12.05-6.22,18.09-9.3,3.06-1.56,6.06-3.21,8.8-5.32,2.71-2.09,4.08-4.63,3.93-8.22-.34-7.99-2.39-15.71-3.22-24.05Zm-29.63-103.67c-6.52-3.79-13.18-4.84-20.14-3.16-12.02,2.89-21.85,12.89-22.92,26.63-.67,8.61,2.16,16.33,6.51,23.6,.59,.99,1.19,.98,2.16,.69,2.6-.77,5.19-1.59,7.71-2.58,4.99-1.96,9.77-4.35,14.04-7.64,1.62-1.25,1.58-1.26,.69-3.01-2.72-5.33-4.01-10.9-2.83-16.89,1.14-5.81,3.47-10.92,8.37-14.58,1.88-1.4,4.07-2.15,6.41-3.06Zm11.76,112.14c5.52-3.39,10.65-6.59,14.53-11.37,3.03-3.74,4.16-7.97,3.14-12.77-.72-3.41-2.12-6.51-3.94-9.44-4.35-7.02-10.22-12.61-16.73-17.61-1.08-.83-1.76-.56-2.66,.18-5.16,4.2-10.81,7.63-16.79,10.54-.41,.2-.9,.32-1.17,.83,.26,.8,1.03,1.15,1.6,1.66,4.43,3.91,8.75,7.93,12.54,12.49,2.81,3.39,5.31,6.99,7.16,11,2.06,4.48,3,9.16,2.31,14.48Zm-11.69,82.06c1.85-1.37,3.32-2.42,4.76-3.52,3.29-2.53,6.77-4.83,9.59-7.91,6.35-6.91,5.46-13.76-1.62-19.32-3.78-2.97-8.25-4.44-12.89-5.47-.94-.21-1.69,.07-2.43,.65-3.1,2.44-5.85,5.2-7.78,8.68-.97,1.76-1.58,3.65-2.03,5.61-.26,1.13-.01,1.99,1.01,2.67,1.06,.71,2.06,1.52,3.02,2.35,4.79,4.16,8.48,8.92,8.38,16.26Zm16.85-8.14c-3.96,3.92-7.95,6.85-11.91,9.81-3.52,2.63-7.01,5.3-10.31,8.21-5.13,4.54-9.54,9.66-12.53,15.89-.26,.54-.61,1.06-.58,1.69,.28,.05,.45,.13,.58,.09,6.98-2.27,13.99-4.46,20.93-6.86,4.23-1.46,8.3-3.35,11.92-6.05,2.93-2.19,4.31-5.18,4.03-8.74-.36-4.53-1.77-8.91-2.14-14.03Zm-79.51-157.84c-.18,9.1-2.09,17.56-7.99,24.88,.54,.12,.77,.22,.98,.2,3.57-.29,7.14-.61,10.72-.89,.92-.07,1.44-.54,1.82-1.31,1.14-2.32,1.89-4.75,1.94-7.34,.1-6.36-3.17-11.15-7.47-15.55Zm54.71,4.9c4.24-4.84,6.25-10.07,6.42-16.01,.09-2.9-.29-5.74-1.63-8.36-.78-1.52-1-1.57-2.22-.43-2.51,2.36-4.03,5.31-4.95,8.6-1.58,5.62-.53,10.84,2.38,16.21Z"/><path d="M171.41,245.61c-.7-.83-1.66-1.23-2.57-1.68-4.85-2.45-9.71-4.87-14.57-7.31-3.5-1.76-6.95-3.61-10.02-6.08-2.65-2.14-4.97-4.55-5.62-8.08-.38-2.06-.2-4.14-.01-6.21,.51-5.49,1.6-10.9,2.47-16.33,.79-4.91,1.23-9.84,.63-14.8-.49-4,.2-7.79,1.64-11.49,2.46-6.29,6.51-11.51,11.12-16.34,2.71-2.83,5.67-5.39,8.8-7.77,.5-.38,1.11-.65,1.42-1.42-2.15-2.17-4.21-4.49-6.05-7.01-6.15-8.42-9.2-17.87-9.06-28.24,.12-9.08,4.24-15.9,12.5-19.98,4.73-2.33,9.49-4.59,14.28-6.8,12.04-5.57,23.27-3.59,33.51,4.24,11.73,8.97,15.73,23.43,11.31,38.13-1.06,3.53-2.55,6.89-4.34,10.11-1.02,1.84-1.02,1.89,1.14,2.35,2.34,.5,4.7,.9,7.05,1.34,.54,.1,1.12,.07,1.65,.57-.57,1.27-1.67,2.1-2.54,3.09-.35,.4-.84,.34-1.33,.25-13.21-2.4-26.07-5.79-37.08-13.98-4.96-3.68-8.96-8.24-11.04-14.17-2.56-7.29-2.77-14.54,.97-21.57-6.06-2.9-13.5-.97-17.63,4.38-3.4,4.41-4.56,9.43-4.19,14.87,.63,9.27,3.77,17.59,9.58,24.87,4.7,5.88,10.53,10.45,16.96,14.28,10.67,6.35,22.27,10.34,34.28,13.23,9.41,2.26,18.92,3.89,28.6,4.43,.45,.02,.98-.13,1.41,.49-.7,.97-1.44,1.98-2.15,3.01-.51,.75-1.24,.6-1.95,.54-10.28-.88-20.45-2.42-30.44-5.04-5.64-1.48-11.2-3.22-16.6-5.44-.92-.38-1.58-.4-2.38,.28-6.42,5.54-12.75,11.17-17.67,18.17-2.88,4.1-5.07,8.5-5.61,13.58-.28,2.61,.26,5.07,1.02,7.53,.35,1.14,1.34,1.54,2.21,2.06,5.08,3.03,10.1,6.14,14.75,9.83,5.18,4.12,9.72,8.8,12.68,14.81,3.42,6.96,4.5,14.25,2.85,21.89-1.22,5.64-4.27,10.1-8.79,13.59-2.34,1.81-4.79,3.48-6.96,5.49-2.67,2.47-5.06,5.19-5.63,8.95-.54,3.56,.08,6.7,3.08,9.24,6.47,5.48,11.9,11.82,15.12,19.81,.78,1.93,1.48,3.89,1.95,5.91,.18,.76,.43,1.68-.26,2.26-.68,.57-1.53,.25-2.26-.11-7.58-3.7-15.78-5.63-23.72-8.29-5.4-1.81-10.6-4-15.32-7.25-4.9-3.37-6.96-7.95-6.13-13.83,.18-1.26,.42-2.52,.64-3.78,.78-4.41,1.53-8.82,1.2-13.33-.06-.79-.05-1.58-.35-2.35-2.8-7.11-.65-12.94,4.7-17.92,2.92-2.72,6.41-4.45,10.08-5.87,.88-.34,1.88-.41,2.68-1.13Zm20.61,16.8c3.13-2.65,4.73-5.81,5.37-9.43,1.58-9-.56-17.1-6.18-24.3-4.04-5.17-9.16-9.13-14.64-12.61-6.14-3.9-12.42-7.55-18.58-11.42-4.13-2.59-8.09-5.45-11.3-9.19-.16-.18-.36-.29-.72-.03-.07,.27-.23,.64-.26,1.02-.28,3.19-.94,6.31-1.44,9.46-.71,4.49-1.44,8.98-1.6,13.54-.1,2.91,1.05,5.12,3.13,6.93,1.14,.99,2.39,1.87,3.67,2.69,3.43,2.2,7.11,3.97,10.78,5.73,6.48,3.11,12.94,6.28,18.8,10.5,4.79,3.45,8.95,7.49,11.39,13.01,.54,1.23,.97,2.5,1.58,4.08Zm-16.38-171.2c.42,.17,.78,.34,1.15,.46,4.64,1.46,8.18,4.35,10.49,8.57,4.54,8.3,4.63,16.75,.39,25.22-1.03,2.05-1.06,2.03,.72,3.4,6.52,4.98,14.01,7.84,21.77,10.18,1.18,.35,1.59-.22,2.07-1,2.21-3.63,4-7.47,5.1-11.57,2.8-10.43,1.5-20.13-5.62-28.59-8.61-10.24-23.73-14.24-36.07-6.66Zm12.05,72.41c-1.13-.58-1.91-.98-2.69-1.38-5.49-2.81-10.78-5.96-15.5-9.94-1.1-.93-1.77-.87-2.85-.05-5.57,4.23-10.61,8.99-14.72,14.67-2.31,3.19-4.21,6.59-5.37,10.38-1.64,5.36-.81,10.23,2.71,14.64,1.71,2.14,3.72,3.95,5.88,5.61,2.65,2.03,5.43,3.85,8.25,5.51,.43-.4,.4-.72,.36-1.02-.69-5.89,1.05-11.2,3.91-16.23,3.43-6.04,8.05-11.11,13.07-15.83,2.2-2.06,4.45-4.08,6.93-6.35Zm-12.25,121.76c.07-4.29,1.11-7.75,3.35-10.82,2.05-2.8,4.49-5.22,7.34-7.16,1.76-1.2,2.03-2.57,1.5-4.49-1.59-5.77-5.32-9.9-9.91-13.43-.65-.5-1.34-.48-2.05-.32-5.2,1.15-10.17,2.89-14.19,6.54-2.95,2.68-4.9,5.89-4.45,10.12,.37,3.44,2.15,6.17,4.5,8.52,4.08,4.07,8.91,7.2,13.9,11.04Zm18.61,27.55c-.11-.47-.13-.72-.22-.93-.3-.66-.6-1.31-.94-1.94-3.22-6.2-7.88-11.22-13.1-15.75-4.95-4.3-10.39-7.98-15.49-12.08-1.84-1.48-3.62-3.03-5.63-4.73-.33,4.03-1.21,7.66-1.88,11.32-.95,5.22,.51,9.41,5.27,12.28,3.44,2.07,7.02,3.82,10.81,5.1,5.9,1.99,11.83,3.87,17.76,5.76,1.04,.33,2,.97,3.42,.98Zm-10.6-188.73c1.22-1.75,1.77-3.41,2.23-5.08,1.88-6.84,.74-13.11-3.83-18.62-2.07-2.5-2.59-2.35-3.76,.74-1.2,3.15-1.14,6.43-.79,9.68,.54,4.96,2.57,9.3,6.15,13.27Z"/><path d="M325.89,464.09c-11.19,.12-19.96-3.29-26.99-10.96-4.72-5.15-7.23-11.26-7.85-18.13-.48-5.3-.1-10.58,1.91-15.57,4.69-11.65,13.4-18.43,25.68-20.54,7.22-1.24,14.39-.72,21.14,2.29,11.64,5.19,18.57,13.97,19.83,26.9,.75,7.66-.66,14.84-5.04,21.22-5.42,7.91-13.02,12.54-22.44,14.24-2.37,.43-4.75,.58-6.26,.55Zm-.36-56.8c-.4,0-.8,0-1.2,0-.48,.01-.96,.03-1.44,.07-9.8,.83-17.11,5.57-20.62,14.74-3.63,9.49-2.42,18.65,4.93,26.22,6.81,7.01,15.43,8.65,24.56,6.48,18.36-4.39,23.37-25.25,13.87-37.78-5-6.6-11.77-9.87-20.11-9.73Z"/><path d="M185.83,448.12c.48-.98,.28-1.87,.28-2.71,.02-14.31,.01-28.62,.01-42.93,0-.64,.03-1.28,0-1.92-.03-.91,.37-1.28,1.29-1.26,2.08,.04,4.16,.05,6.24,0,1.08-.03,1.41,.48,1.35,1.45-.03,.48,0,.96,0,1.44,0,19.43,0,38.85,0,58.28,0,.48-.04,.96,0,1.44,.09,1.11-.34,1.61-1.5,1.57-1.68-.06-3.36-.07-5.03,0-1.08,.05-1.78-.42-2.45-1.2-5.43-6.29-10.88-12.57-16.33-18.85-7.86-9.06-15.71-18.11-23.58-27.15-.45-.51-.77-1.22-1.86-1.41v2.34c0,14.23,0,28.46,0,42.69,0,.48,0,.96,0,1.44-.03,2.09-.03,2.1-2.13,2.12-1.68,.02-3.36-.05-5.04,.02-1.18,.04-1.59-.48-1.48-1.58,.03-.32,0-.64,0-.96,0-19.67,0-39.33,0-59,0-2.82-.19-2.41,2.55-2.68,3.59-.36,5.94,.9,8.3,3.73,8.81,10.55,17.96,20.81,26.97,31.19,3.56,4.1,7.11,8.22,10.67,12.32,.47,.54,.86,1.15,1.73,1.62Z"/><path d="M483.37,433.21c5.16,3.71,8.43,8.94,11.72,14.14,3.21,5.06,6.29,10.2,9.98,14.94,.14,.18,.19,.43,.27,.61-.1,.27-.2,.5-.49,.5-2.96,.02-5.91,0-8.87,.07-1.21,.03-1.62-.81-2.17-1.59-3.18-4.6-6.18-9.32-9.06-14.12-1.98-3.31-4.49-6.19-7.22-8.91-3.09-3.07-6.87-3.44-10.88-3.2-.68,.04-1.02,.36-1.03,1.04,0,.56-.01,1.12-.01,1.68,0,7.51,0,15.03,0,22.54,0,2.73,.13,2.56-2.65,2.56-1.52,0-3.04,.02-4.56,0-1.92-.03-1.92-.04-1.95-2.05,0-.24,0-.48,0-.72,0-19.58,0-39.16,0-58.75,0-2.83-.2-2.63,2.55-2.63,4.8,0,9.59-.02,14.39,0,3.8,.02,7.48,.7,10.89,2.43,6.23,3.15,9.39,8.32,9.4,15.23,.01,6.76-2.77,12.04-9,15.19-.41,.21-.93,.29-1.3,1.04Zm-17.77-16.09c0,2.88,.02,5.75,0,8.63,0,.95,.24,1.53,1.33,1.5,3.35-.1,6.71,.17,10.02-.6,3.54-.82,7.04-3.73,7.14-9.33,.09-4.72-2.46-8.27-7-9.36-3.28-.79-6.64-.8-9.99-.84-1.16-.01-1.52,.53-1.5,1.62,.04,2.8,.01,5.59,.01,8.39Z"/><path d="M424.84,420.53c0-6.39,0-12.79,0-19.18,0-2,.03-2.01,1.94-2.03,2-.02,4,.03,5.99-.02,.99-.02,1.51,.31,1.45,1.36-.03,.48,0,.96,0,1.44,0,11.35,.03,22.7-.02,34.05-.01,2.63-.15,5.28-.55,7.88-1.49,9.69-7.22,15.83-16.47,18.58-8.2,2.44-16.45,2.26-24.39-1.12-8.66-3.68-13.02-10.53-13.55-19.79-.66-11.58-.18-23.17-.29-34.76-.02-2,.03-4,0-5.99-.02-1.2,.42-1.71,1.69-1.66,2.07,.09,4.16,.05,6.23,.01,.99-.02,1.52,.3,1.44,1.37-.04,.56,0,1.12,0,1.68,.01,11.75,.04,23.5,.02,35.25,0,2.09,.27,4.15,.59,6.2,.83,5.34,4.2,8.67,9.02,10.61,4.9,1.97,10,2.14,15.05,.72,7.47-2.09,11.62-6.7,11.76-15.41,.11-6.39,.02-12.79,.02-19.18h.07Z"/><path d="M56.34,463.46c.91-2.19,1.65-4.02,2.42-5.83,7.93-18.58,15.86-37.15,23.8-55.73,.13-.29,.29-.58,.37-.88,.46-1.76,1.64-2.03,3.36-2.22,3.16-.35,4.55,.92,5.78,3.74,8.59,19.6,17.37,39.11,26.09,58.65,.16,.36,.33,.73,.46,1.1,.23,.66,.07,1.13-.71,1.13-2.48,.02-4.95,.01-7.43,.01-1.18,0-1.33-1.01-1.68-1.77-2.28-5.02-4.6-10.01-6.73-15.09-.7-1.66-1.56-2.23-3.35-2.21-7.51,.1-15.02,.12-22.53-.01-1.85-.03-2.64,.62-3.29,2.25-1.97,4.97-4.17,9.85-6.15,14.82-.63,1.58-1.5,2.18-3.2,2.07-2.28-.15-4.57-.04-7.21-.04Zm40.92-27.31c-3.47-7.69-6.63-15.1-10.27-22.9-3.27,7.94-6.31,15.32-9.43,22.9h19.71Z"/><path d="M272.58,413.72c-1.47-.74-2.52-1.29-3.58-1.81-6.49-3.19-13.29-4.88-20.58-4.54-11.23,.52-21.25,8.6-22.98,19.82-2.52,16.39,8.37,25.96,19.12,27.82,9.4,1.62,18.06-.52,26.24-5.14,.67-.38,1.26-.97,2.29-1.01,.27,3.04,.08,6.04,.11,9.03,0,.92-.75,1.15-1.38,1.46-3.09,1.52-6.31,2.7-9.68,3.43-7.83,1.69-15.71,2.15-23.46-.13-12.22-3.59-19.86-11.92-22.4-24.2-4.58-22.2,11.46-37.08,27.59-39.55,6.69-1.02,13.22-.23,19.65,1.65,2.52,.74,4.98,1.72,7.48,2.55,1.13,.37,1.66,.99,1.62,2.26-.09,2.63-.03,5.26-.03,8.36Z"/><path d="M14.75,431.42c0-9.67,0-19.33,0-29,0-.56,.03-1.12,0-1.68-.06-.98,.28-1.53,1.35-1.45,.4,.03,.8,0,1.2,0,9.75,0,19.49,0,29.24,0,.48,0,.96,.01,1.44,0,.65,0,1.1,.23,1.1,.95,0,2.08,0,4.15,0,6.23,0,.69-.38,1.01-1.05,1-.56,0-1.12,.01-1.68,.01-6.71,0-13.42,0-20.13,0-2.08,0-2.11,.03-2.11,2.14-.02,4.55-.02,9.11,0,13.66,0,1.93,.04,1.96,2.04,1.96,6.71,.02,13.42,0,20.13,0,.56,0,1.12,.02,1.68,0,.82-.02,1.14,.41,1.13,1.18-.01,2,0,3.99,0,5.99,0,.79-.42,1.16-1.18,1.18-.56,.01-1.12,.02-1.68,.02-6.39,0-12.78,0-19.17,0-.64,0-1.28,0-1.92,.03-.68,.02-1,.41-1.01,1.07-.01,.64-.02,1.28-.02,1.92,0,7.99,0,15.98,0,23.96,0,.56-.02,1.12,0,1.68,.01,.81-.4,1.14-1.18,1.14-2.32,0-4.63-.02-6.95,0-.96,0-1.22-.5-1.21-1.36,.02-1.92,0-3.83,0-5.75,0-8.31,0-16.62,0-24.92Z"/><path d="M539.47,435.46c0,8.39,0,16.79,0,25.18,0,.56-.02,1.12,0,1.68,.01,.81-.4,1.14-1.18,1.13-2.32-.01-4.64,0-6.96-.01-.67,0-1.03-.34-1.03-1.03,0-.64-.01-1.28-.01-1.92,0-16.79,0-33.58,0-50.37,0-2.93,.22-2.67-2.75-2.68-5.76,0-11.51,0-17.27,0-1.94,0-1.95-.04-1.98-2.01-.02-1.6,.03-3.2-.01-4.8-.03-1.04,.4-1.46,1.42-1.4,.48,.03,.96,0,1.44,0,15.99,0,31.98,0,47.97,0,.4,0,.8,.04,1.2,0,1.31-.14,1.65,.53,1.6,1.71-.06,1.6,.01,3.2-.02,4.8-.03,1.65-.06,1.69-1.81,1.7-5.52,.02-11.03,0-16.55,0q-4.04,0-4.04,4.03c0,7.99,0,15.99,0,23.98Z"/><path d="M66.22,490.48c16.3,0,32.59,0,48.89,0,.64,0,1.28,.02,1.92,0,.82-.02,1.14,.38,1.14,1.17,0,.76-.24,1.23-1.09,1.21-.56-.02-1.12,0-1.68,0-32.83,0-65.66,0-98.49,0-.56,0-1.12-.02-1.68,0-.81,.03-1.14-.35-1.13-1.15,0-.75,.23-1.24,1.08-1.22,.64,.01,1.28,0,1.92,0,16.38,0,32.75,0,49.13,0Z"/><path d="M508.46,490.48c16.3,0,32.59,0,48.89,0,.56,0,1.12,.02,1.68,0,.8-.03,1.39,.11,1.43,1.13,.04,1.17-.64,1.29-1.53,1.25-.48-.02-.96,0-1.44,0-32.67,0-65.34,0-98.01,0-.56,0-1.12-.01-1.68,0-.78,.02-1.39-.06-1.42-1.11-.02-1.16,.62-1.31,1.52-1.27,.56,.02,1.12,0,1.68,0,16.3,0,32.59,0,48.89,0Z"/><path d="M238.02,119.46c-4.76,4.76-7.93,10.18-7.09,17.23,.12,1.04-.07,1.87-.82,2.6-.57,.55-1.07,1.18-1.63,1.75-.16,.16-.4,.23-.72,.41-1.98-5.17-1.69-10.18,.46-15.14,1.38-3.18,3.36-5.97,5.62-8.57,1.99-2.29,4.17-4.4,6.43-6.43,.53-.48,1.11-.93,1.73-1.26,.84-.45,1.41-.16,1.46,.82,.06,1.27,.04,2.56-.14,3.82-.36,2.54-.46,5.09-.32,7.64,.09,1.65-.37,2.93-1.54,4.04-.68,.65-1.15,1.52-2.24,2.17-.88-2.93-.48-5.87-.86-8.72,.16-.18,.24-.38,0-.53-.05-.03-.23,.12-.35,.19Z"/><path d="M183.48,489.99c-.03,6.8-5.53,12-12.63,11.93-6.89-.07-12.22-5.38-12.19-12.14,.03-6.67,5.54-11.98,12.4-11.97,7.01,.02,12.45,5.34,12.42,12.18Zm-12.44,10.09c5.84,.02,10.23-4.25,10.3-10.01,.08-5.96-4.24-10.34-10.19-10.34-5.98,0-10.36,4.33-10.33,10.23,.03,5.73,4.45,10.11,10.22,10.13Z"/><path d="M251.72,489.85v-8.63c0-.32-.04-.65,0-.96,.14-.83-.52-2.16,1.1-2.13,1.44,.03,.93,1.24,.96,2.01,.07,1.68,0,3.36,.02,5.03,.05,4.4-.54,3.75,3.82,3.8,3.28,.03,6.55-.04,9.83,.03,1.27,.02,1.68-.47,1.66-1.69-.05-2.4-.02-4.79-.01-7.19,0-.48-.01-.97,.08-1.43,.09-.46,.49-.58,.92-.58,.42,0,.84,.11,.94,.56,.1,.46,.09,.95,.09,1.43,0,6.47,.02,12.95-.02,19.42,0,.76,.51,1.99-.91,2.06-1.63,.08-1.06-1.29-1.09-2.11-.07-2.4-.06-4.79-.02-7.19,.02-1.23-.51-1.69-1.72-1.68-3.91,.04-7.83-.01-11.75,.02-1.66,.01-1.74,.14-1.82,1.78-.03,.48,0,.96,0,1.44,0,2,.02,4-.01,5.99-.01,.74,.29,1.74-.99,1.77-1.24,.03-1.08-.9-1.09-1.69,0-.4,0-.8,0-1.2,0-2.96,0-5.91,0-8.87Z"/><path d="M358.93,490c2.87,3.66,5.14,7.48,7.66,11.26-1.43,.74-2.21,.19-2.88-.88-1.35-2.16-2.84-4.24-4.1-6.46-1.69-2.99-4.26-3.82-7.47-3.51-.91,.09-1.27,.4-1.26,1.3,.02,2.47,0,4.94,0,7.42,0,.56,0,1.12-.02,1.67-.03,.62-.48,.76-.99,.78-.58,.02-.88-.26-.88-.85,0-.4,0-.8,0-1.2,0-6.38,0-12.76,0-19.14,0-2.29,.02-2.32,2.41-2.29,1.99,.02,3.98-.16,5.96,.25,3.1,.65,4.92,2.14,5.35,4.71,.48,2.84-.59,4.98-3.14,6.37-.2,.11-.35,.29-.65,.55Zm-8.04-5.85h.01c0,1.11,0,2.22,0,3.34,0,.76,.28,1.2,1.1,1.21,1.75,0,3.5,.15,5.23-.19,2.05-.41,3.25-1.78,3.41-3.74,.18-2.19-.74-3.64-2.78-4.46-.91-.37-1.84-.48-2.8-.47-5.08,.04-4.04-.64-4.17,4.08,0,.08,0,.16,0,.24Z"/><path d="M440.69,501.42c-1.32,.51-1.9-.07-2.34-1.09-.75-1.76-1.64-3.47-2.36-5.24-.42-1.03-1-1.5-2.14-1.48-2.8,.06-5.59,.07-8.39,0-1.15-.03-1.74,.44-2.16,1.45-.74,1.77-1.57,3.5-2.37,5.24-.26,.57-.45,1.25-1.25,1.29-.3,.01-.66,0-.9-.15-.31-.2-.18-.56-.05-.85,.72-1.6,1.44-3.2,2.18-4.8,2.47-5.37,4.95-10.73,7.42-16.1,.17-.36,.3-.75,.51-1.08,.51-.8,1.1-.78,1.65,.03,.13,.2,.22,.43,.32,.64,3.29,7.19,6.58,14.38,9.86,21.57,.06,.13,.02,.3,.04,.59Zm-10.76-19.6h-.6c-1.49,3.26-2.97,6.53-4.51,9.93h9.66c-1.59-3.48-3.07-6.7-4.55-9.93Z"/><path d="M317.34,500.98c-.08,.46-.34,.59-.68,.63-.88,.09-1.28-.44-1.6-1.15-.82-1.82-1.69-3.61-2.46-5.45-.43-1.02-1.06-1.44-2.18-1.41-2.79,.06-5.58,.05-8.37,0-1.02-.02-1.62,.35-2.02,1.29-.72,1.68-1.53,3.33-2.31,4.99-.2,.43-.35,.9-.63,1.28-.37,.52-.98,.58-1.5,.32-.62-.3-.25-.82-.07-1.23,1.19-2.61,2.39-5.22,3.58-7.83,1.95-4.28,3.9-8.56,5.86-12.83,.13-.29,.25-.59,.42-.86,.6-.97,1.19-1,1.78-.09,.13,.2,.21,.43,.31,.65,3.15,6.88,6.31,13.77,9.46,20.65,.16,.36,.3,.73,.42,1.03Zm-11.07-19.8c-1.76,3.85-3.26,7.12-4.85,10.59h9.72c-1.61-3.5-3.11-6.76-4.87-10.59Z"/><path d="M408.68,481.7c-1.7-.56-3.2-1.31-4.84-1.67-5.11-1.14-9.68,.47-11.93,4.43-2.15,3.79-2.13,7.72,.28,11.35,2.48,3.73,6.28,4.69,10.54,4.13,2.13-.28,4.12-1.11,6.08-2.06,.48,1.01,.49,1.74-.41,2.2-4.89,2.49-12,2.99-16.7-1.78-3.52-3.58-4.23-7.87-2.7-12.4,1.49-4.41,4.85-7.06,9.47-7.86,3.14-.54,6.18,.06,9.14,1.21,1.12,.44,1.53,1.03,1.07,2.45Z"/><path d="M213.68,486.24c0,2.24,.16,4.49-.04,6.7-.36,4.07-2.34,7.16-6.37,8.43-3.93,1.24-7.59,.6-10.58-2.47-1.76-1.81-2.48-4.11-2.54-6.55-.1-4.23-.03-8.46-.03-12.69,0-.32,0-.64,.07-.95,.11-.46,.48-.59,.91-.57,.43,.02,.82,.16,.85,.65,.05,.87,.06,1.75,.06,2.63,0,3.03,.02,6.07,0,9.1,0,1.13,.13,2.23,.36,3.33,.8,3.86,3.54,6.17,7.39,6.23,3.91,.06,6.68-2.07,7.69-5.86,.29-1.09,.39-2.19,.39-3.32,0-3.27,0-6.55,0-9.82,0-.48,0-.96,0-1.44,.01-.72-.09-1.54,1.01-1.5,.94,.04,.87,.75,.88,1.39,.01,.96,0,1.92,0,2.87,0,1.28,0,2.56,0,3.83h-.06Z"/><path d="M147.68,481.25c-1.1-.45-1.96-.9-2.87-1.16-2.09-.61-4.11-.65-5.81,1.04-1.76,1.75-1.65,4.3,.25,5.89,.81,.68,1.78,1.06,2.74,1.46,1.03,.43,2.08,.82,3.09,1.3,2.89,1.39,4.17,3.65,3.73,6.53-.43,2.84-2.64,5.06-5.57,5.52-2.32,.37-4.43-.29-6.42-1.43-.99-.57-1.22-1.38-.62-2.56,1.22,.65,2.34,1.39,3.6,1.85,1.6,.58,3.13,.56,4.62-.29,2.97-1.7,3.09-5.57,.22-7.52-1.67-1.14-3.66-1.58-5.45-2.45-2.86-1.39-4.15-3.86-3.43-6.63,.64-2.46,2.3-4.01,4.69-4.68,2.25-.63,4.43-.17,6.54,.75,1.08,.47,1.03,1.26,.7,2.38Z"/><path d="M327.08,489.88c0-3.27-.02-6.55,0-9.82,.01-1.93,.04-1.94,2.04-1.96,2.71-.02,5.43,0,8.14,0,.48,0,.96,0,1.43,.08,.34,.05,.53,.33,.56,.68,.03,.44-.13,.81-.59,.88-.47,.07-.95,.07-1.43,.07-2.16,0-4.31,.05-6.46-.01-1.26-.04-1.69,.48-1.65,1.69,.06,1.83,.05,3.67,0,5.51-.03,1.1,.35,1.6,1.52,1.55,1.83-.07,3.67-.02,5.51-.01,.48,0,.96,0,1.43,.04,.49,.04,.67,.37,.67,.82,0,.47-.26,.76-.72,.77-1.44,.03-2.87,.03-4.31,.04-.8,0-1.6,.04-2.39,0-1.22-.07-1.73,.43-1.71,1.67,.05,2.39,.01,4.79,0,7.18,0,.56,0,1.12-.02,1.68-.02,.57-.35,.86-.91,.88-.65,.02-1.08-.23-1.09-.95,0-.48-.01-.96-.01-1.44,0-3.11,0-6.23,0-9.34Z"/><path d="M231.5,490.68c0-3.11-.03-6.22,.01-9.34,.02-1.11-.36-1.59-1.51-1.55-1.67,.06-3.35,.02-5.03,0-.48,0-.96,0-1.43-.06-.46-.05-.67-.37-.66-.83,.01-.47,.27-.73,.72-.78,.4-.04,.8-.05,1.19-.05,5.19,0,10.37,0,15.56,0,.32,0,.64,0,.96,0,.56,0,.92,.25,.92,.84,0,.58-.34,.85-.91,.85-1.6,0-3.19,0-4.79,.01-3.31,0-2.98-.12-2.98,2.98-.01,5.35,0,10.69,0,16.04,0,.56-.02,1.12,0,1.68,.02,.81-.35,1.15-1.16,1.12-.76-.03-.89-.49-.89-1.12,.01-2.55,0-5.11,0-7.66,0-.72,0-1.44,0-2.15Z"/><path d="M377.31,489.79c0,3.12,0,6.23,0,9.35,0,.56-.01,1.12-.05,1.67-.04,.48-.39,.65-.82,.67-.52,.02-.97-.1-1.01-.73-.03-.48-.04-.96-.04-1.44,0-6.31,0-12.63,0-18.94,0-.24,0-.48,0-.72,.02-.71-.11-1.55,.99-1.52,1.11,.03,.93,.89,.93,1.58,.01,3.36,0,6.71,0,10.07Z"/><path d="M300.11,326.8c0,2.24,.06,4.48-.01,6.71-.12,3.56,.91,6.77,2.82,9.74,.73,1.14,1.56,2.23,2.2,3.43,.69,1.29,.31,1.98-1.15,2.1-2.25,.18-4.46-.21-6.66-.63-.7-.14-1.38-.39-2.06-.61-1.94-.65-1.95-.66-2.78,1.1-1.14,2.42-2.72,4.51-4.63,6.36-1.61,1.56-1.95,1.55-3.55,.04-1.99-1.88-3.63-4.03-4.81-6.52-.78-1.66-.81-1.65-2.64-.99-2.82,1.02-5.76,1.31-8.72,1.22-1.66-.05-2.02-.72-1.22-2.13,.63-1.11,1.4-2.14,2.09-3.21,1.9-2.96,2.96-6.12,2.86-9.72-.13-5.03-.02-10.07-.04-15.11,0-1.72-.05-1.76-1.71-1.77-5.12-.02-10.23-.05-15.35,.02-2.61,.03-5,.96-7.21,2.33-1.29,.8-2.52,1.7-3.83,2.46-1.64,.96-2.42,.57-2.39-1.34,.05-2.71,.17-5.43,1.09-8.03,.8-2.26,.78-2.3-1.3-3.31-2.49-1.2-4.57-2.92-6.42-4.94-1.07-1.17-1.08-1.49-.03-2.64,2.01-2.21,4.28-4.1,7.07-5.23,1.22-.49,1.51-1.08,.95-2.34-1.16-2.6-1.22-5.43-1.37-8.22-.04-.77-.13-1.74,.61-2.21,.79-.51,1.57,.1,2.17,.59,4.72,3.9,10.16,5.05,16.15,4.65,3.26-.22,6.55-.02,9.83-.05,1.69-.01,1.74-.05,1.74-1.74,.02-4.24,.04-8.47-.02-12.71-.04-2.89-1.29-5.4-2.78-7.8-.63-1.02-1.36-1.98-1.98-3-.98-1.63-.63-2.39,1.29-2.42,2.96-.05,5.9,.26,8.71,1.32,1.62,.61,1.66,.61,2.42-1.02,1.24-2.65,2.99-4.9,5.14-6.86,1.21-1.1,1.66-1.12,2.85-.01,2.19,2.03,4.03,4.35,5.16,7.13,.48,1.2,1,1.37,2.14,.86,2.53-1.12,5.26-1.25,7.97-1.45,.32-.02,.64-.03,.96,0,1.77,.16,2.16,.79,1.32,2.31-.54,.98-1.21,1.88-1.84,2.81-1.45,2.15-2.44,4.49-2.88,7.04-.08,.47-.17,.95-.17,1.42-.01,4.16,.02,8.31-.03,12.47-.02,1.23,.38,1.69,1.64,1.67,5.2-.06,10.39,.02,15.59-.07,2.87-.05,5.43-1.22,7.83-2.72,1.08-.68,2.1-1.46,3.21-2.1,1.53-.89,2.27-.53,2.32,1.22,.09,2.97-.23,5.92-1.31,8.71-.76,1.96-.67,1.78,1.1,2.58,2.58,1.16,4.79,2.88,6.7,4.95,1.18,1.28,1.2,1.82,.03,3.07-1.93,2.06-4.13,3.76-6.7,4.97-1.75,.82-1.74,.83-1.12,2.54,1,2.74,1.38,5.58,1.32,8.47-.04,2.05-.75,2.42-2.52,1.39-.14-.08-.27-.17-.4-.27-4.52-3.66-9.7-4.93-15.46-4.53-3.5,.24-7.03,.08-10.55,.03-1.22-.02-1.7,.37-1.67,1.64,.07,2.8,.02,5.6,.02,8.39Zm-18.42-57.06c-2.68-1.91-5.17-3.75-8.15-4.49-.27,.37-.14,.56-.02,.76,1.81,2.94,2.58,6.15,2.54,9.59-.03,3.44,.1,6.88-.04,10.31-.11,2.74,.68,4.85,3.19,6.16,.06,.03,0,.28,0,.46-.27,.36-.7,.24-1.07,.24-7.59,0-15.19,.05-22.78-.01-2.82-.02-5.53-.73-8.05-2.06-.43-.23-.83-.72-1.55-.41,.79,3.05,2.65,5.44,4.37,8.1-4.16,.47-7.85,1.44-10.94,4.26,3.13,2.96,6.91,3.76,10.93,4.34-1.75,2.72-3.71,5.04-4.29,8.1,.7,.15,1.05-.23,1.45-.45,2.67-1.42,5.52-2.09,8.52-2.11,7.35-.03,14.71-.02,22.06,0,.51,0,1.15-.24,1.59,.7-3.34,1.24-3.5,4.06-3.42,7.07,.09,3.67-.06,7.36,.04,11.03,.13,4.52-.26,8.91-3.08,13.19,3.49-.88,5.99-2.69,8.65-4.61,.63,4.1,1.4,7.88,4.4,10.93,2.88-3.09,3.75-6.84,4.24-10.95,2.8,1.93,5.29,3.87,8.71,4.58-2.45-3.71-3.17-7.58-3.15-11.66,.02-4.32-.11-8.64,.05-12.95,.11-2.93-.38-5.38-3.27-6.78-.03-.01,0-.14,0-.23,.23-.44,.67-.34,1.04-.34,7.75,0,15.51-.05,23.26,.04,2.73,.03,5.36,.78,7.82,2.04,.44,.23,.77,.85,1.52,.49-.68-3.09-2.76-5.47-4.36-8.19,4.1-.46,7.78-1.32,10.79-4.22-2.9-3.06-6.77-3.64-10.71-4.42,1.72-2.76,3.63-5.12,4.37-8.5-3.23,1.99-6.42,2.95-9.8,2.99-7.51,.07-15.03,.03-22.54,.01-.49,0-1.15,.27-1.43-.47q3.27-2.41,3.27-6.77c0-1.92,.04-3.84,0-5.75-.11-4.9,.04-9.74,2.93-14.35-3.55,.39-5.76,2.75-8.56,4.21-.43-4.13-1.29-7.85-4.25-10.86-2.85,3.15-3.77,6.82-4.29,10.97Z"/><path d="M293.25,223.99c4.62,1.25,8.89,2.41,13.17,3.56,5.93,1.6,11.87,3.18,17.8,4.78,1.92,.52,1.95,.73,1.38,2.66-.29,.99-.75,1.01-1.57,.78-3.39-.92-6.79-1.79-10.18-2.7-19.5-5.22-38.99-10.44-58.49-15.66-.08-.02-.15-.04-.23-.06q-2.05-.56-1.66-2.04c.48-1.82,.49-1.83,2.51-1.29,9.33,2.49,18.66,4.97,27.97,7.5,1.36,.37,2.62,.42,3.99,.05,9.47-2.57,18.96-5.09,28.44-7.61,1.71-.45,1.9-.32,2.28,1.36,.3,1.32,.2,1.49-1.6,1.98-6.86,1.84-13.72,3.66-20.58,5.5-.98,.26-2.01,.41-3.22,1.19Z"/><path d="M280.02,227.21c-3.06,.82-6.12,1.63-9.18,2.45-7.39,1.99-14.79,3.99-22.18,5.97-1.69,.46-2.92-.67-2.56-2.37,.14-.68,.78-.71,1.31-.85,3.54-.95,7.09-1.9,10.63-2.84,4.55-1.21,9.13-2.31,13.63-3.66,1.86-.55,3.55-.6,5.34,.02,.97,.34,1.99,.55,2.99,.82l.02,.46Z"/><path d="M228.58,228.04c-.05-1.55,.62-2.66,1.89-3.42,2.03-1.2,3.75-.53,4.48,1.72,.55,1.69,.42,3.48,.76,5.2,.09,.47,.07,.96,.18,1.42,.42,1.7,1.02,2.1,2.74,1.8,.55-.1,1.08-.29,1.62-.43,1.9-.48,1.83-.45,2.37,1.48,.3,1.07-.08,1.41-.97,1.71-1.55,.53-3.34,.42-4.55,1.87-.38,.46-1.1,.26-1.56-.09-3.76-2.87-6.23-6.55-6.97-11.27Z"/><path d="M343.45,228.68c-.81,4.11-3.08,7.65-6.6,10.43-.58,.46-1.43,.88-1.95,.23-1.03-1.29-2.54-1.23-3.86-1.66-1.67-.54-2.21-2.08-1.09-3.36,.23-.27,.52-.29,.86-.2,.77,.22,1.54,.43,2.32,.6,2.04,.46,2.5,.13,3.08-1.86,.45-1.56,.19-3.19,.57-4.75,.08-.31,.12-.63,.18-.94,.48-2.44,1.14-3.11,2.94-3.02,2.04,.1,3.38,1.41,3.55,3.49,.02,.24,0,.48,0,1.05Z"/><path d="M249.9,212.42c-.49,3.41-.49,3.39-3.47,2.59-5.3-1.44-10.6-2.85-15.9-4.27-.76-.2-1.61-.3-1.87-1.24-.37-1.35,.73-2.51,2.17-2.15,4.01,1.01,8,2.1,12,3.17,2.37,.63,4.73,1.28,7.07,1.91Z"/><path d="M341.68,207.19c.9-.04,1.45,.4,1.62,1.33,.18,.99-.06,1.73-1.13,2.02-2.23,.6-4.46,1.21-6.69,1.81-3.77,1.02-7.55,2-11.3,3.06-1.23,.35-1.53-.28-1.76-1.25-.21-.87-.62-1.66,.74-2.02,6.01-1.57,12-3.21,18-4.82,.15-.04,.31-.08,.51-.14Z"/><path d="M293.84,146.56c-1.45,.02-2.41-.88-2.46-2.32-.05-1.45,.86-2.48,2.24-2.54,1.46-.07,2.61,1.01,2.62,2.47,.01,1.39-.98,2.38-2.4,2.4Z"/><path d="M289.91,135.3c-.03-1.3,1.07-2.53,2.31-2.58,1.25-.04,2.47,1.08,2.55,2.36,.09,1.4-1.09,2.69-2.45,2.68-1.32,0-2.38-1.09-2.42-2.46Z"/><path d="M292.82,153.06c-.02-1.32,1.05-2.46,2.35-2.51,1.27-.05,2.45,1.06,2.52,2.36,.07,1.38-1.14,2.66-2.49,2.63-1.32-.03-2.36-1.11-2.38-2.48Z"/><path d="M261.16,304.13c1.58-1.04,.81-2.08,.07-3.26,3.08,0,5.87,0,8.66,0,3.75,0,7.51,0,11.26,0,3.39,0,3.04,.13,3.05-3.17,0-5.19,0-10.39,.01-15.58,0-.78-.17-1.58,.24-2.53,1.06,1.19,2.16,.85,3.17-.09,.49,.96,.29,1.76,.29,2.53,.02,5.43,0,10.87,.01,16.3,0,2.52,.01,2.53,2.46,2.53,6.23,0,12.46,0,18.69,.01,.52,0,1.1-.2,1.72,.34-.64,.87-2.06,1.85,.29,2.74-.93,.59-1.57,.44-2.16,.45-6.07,.01-12.14,0-18.21,0-2.88,0-2.79-.2-2.79,2.69,0,6.47,0,12.94,0,19.41v2.71c-1.26-.76-2.39-1.74-3.72-.28v-2.31c0-6.07,.03-12.14,0-18.21-.03-4.52,.64-3.98-3.88-4-5.43-.03-10.86,0-16.3,0h-2.38l-.47-.29Z"/></svg>