<svg xmlns="http://www.w3.org/2000/svg" xmlns:xlink="http://www.w3.org/1999/xlink" id="Layer_2" data-name="Layer 2" viewBox="0 0 238.06 220.61"><defs><style>      .cls-1 {        fill: none;      }      .cls-2 {        clip-path: url(#clippath);      }      .cls-3 {        fill: #d5d7d8;      }    </style><clipPath id="clippath"><rect class="cls-1" width="238.06" height="220.61"></rect></clipPath></defs><g id="Layer_1-2" data-name="Layer 1"><g class="cls-2"><path class="cls-3" d="M238.06,186.63c-.18-4.9-.39-9.8-.39-14.7,.04-1.94,0-3.95,.07-5.92,.11-2.43,.32-4.87,.32-7.3-.64,.04-1.29,.04-1.93,.04-2.36,.03-4.8-.07-7.2-.21,.36,3.91,.54,7.9,.54,11.88,0,1.98-.03,3.95-.07,5.92-.07,3.24-.39,6.56-.79,9.84l9.45,.46Zm-22.59-7.44c-1.47,.25-2.97,.46-4.48,.56-1.61,.11-3.22,.11-4.83,.21-.18-2.01-.43-4.02-.43-5.99,0-1.02,.07-2.08,.07-3.14,0-3.21,0-6.49,.5-9.63,.07-.56,.18-1.13,.36-1.69,.07-.21,.21-.46,.25-.7-1.57,.35-3.19,.39-4.8,.46-1.47,.07-2.9,.14-4.33,.28,.18,3.98,.36,8,.36,11.99,0,3.17,0,6.35-.04,9.52,0,1.73,.07,3.56-.07,5.32,.82,.14,1.72,.14,2.58,.14h4.51c1.93,0,3.83,0,5.73-.03,.79,0,2.15,.07,2.9-.11l1.72-7.19Zm-44.21-3.84s0,.11-.04,.11c-.32,.21-2.79,.25-3.26,.25-.54,0-4.48-.03-4.48-.67,0-.53,2.04-5.68,2.36-6.42,.04-.21,.68-1.73,.86-1.73,.07,0,.39,.53,.43,.6,.72,1.09,4.08,6.91,4.08,7.86h.04Zm13.14,10.86c-.43-.88-.97-1.73-1.47-2.57-.72-1.31-1.4-2.61-2.08-3.91-2.58-5.04-5.26-9.98-7.52-15.13-.22-.46-2.4-5.68-2.65-5.89-.39,.11-1,.07-1.4,.07h-3.87c-.29,0-2.94,.03-3.12-.07-.32,.14-.57,1.2-.68,1.48-.11,.35-.18,.53-.32,.85-.79,1.9-1.61,3.74-2.43,5.57-1.83,4.13-3.69,8.22-5.55,12.31-1.11,2.5-2.33,4.97-3.37,7.47h9.56c.29-.49,.5-.95,.72-1.52,.14-.39,1.04-3.03,1.22-3.21,.21-.03,.46-.03,.72-.03,1.11,0,10.78,.25,10.96,.46,.25,.28,1.65,3.95,1.83,4.55,1.9,0,3.8-.04,5.69-.11,1.25-.07,2.54-.07,3.76-.32m-54.08-7.4c-.64,1.97-3.51,3.81-5.55,4.02-.57-1.09-.72-4.2-.72-5.47,0-.81,0-1.69,.21-2.47,2.54,.42,4.8,1.62,6.09,3.91h-.04Zm-5.91-15.37c.14,0,.57,.11,.72,.14,1.65,.46,3.87,2.08,4.48,3.7,0,.28-.14,.67-.25,.88-.9,1.73-3.04,2.64-4.83,3.1-.43-.95-.61-4.37-.61-5.47,.04-.32,0-2.36,.54-2.36h-.04Zm14.32,16.99c-.04-2.01-4.08-5.89-5.66-7.12,1.15-1.55,4.62-6.88,4.62-8.64,0,0,0-.18-.04-.21-1.65-1.97-4.05-4.3-6.3-5.57-2.08-.11-4.15-.14-6.23-.14-2.86,0-5.69,.1-8.52,.28,.11,.92,.29,1.83,.36,2.78,.22,2.36,.22,4.76,.22,7.12,0,4.51-.04,9.03-.25,13.54,0,.99-.04,2.01-.14,3-.04,.21-.07,.42-.11,.64v.14s-.04,0-.04-.03c4.05,.1,8.06,.25,12.07,.25,.61,0,4.15,.04,4.62-.32,.39-.32,.79-.71,1.22-1.06,1.61-1.38,3.37-2.72,4.22-4.65h-.04Zm-36.22,5.82c-.18-1.06-.5-2.12-.79-3.14-.54-1.9-1.07-3.81-1.61-5.71-1.83-6.24-3.72-12.45-5.48-18.69-.93-.1-1.9-.18-2.86-.18h-.82c-1.32,2.72-2.68,5.43-4.12,8.11-.82,1.55-1.65,3.1-2.58,4.58-.07,.11-.57,.88-.72,.88-1.04,0-6.52-11.67-7.34-13.47h-.39c-1,0-2.01,.14-3.01,.42-.75,2.22-1.57,4.41-2.36,6.59-1.36,3.88-2.76,7.76-4.12,11.64-.61,1.73-1.22,3.46-1.79,5.22-.43,1.31-.9,2.61-1.25,3.95l8.77-.1v-.11c.04-.95,.36-2.01,.57-2.96,.61-2.78,1.54-6.73,2.61-9.31,.04-.11,.32-.88,.54-.88,.14,0,.43,.42,.5,.53,1,1.41,1.83,3.17,2.72,4.69,1.4,2.5,2.94,4.94,4.73,7.19,1.5-2.01,2.83-4.12,4.08-6.28,.9-1.52,2.04-3.95,3.26-5.15,.72,2.5,1.43,4.97,2.18,7.44,.47,1.66,.93,3.31,1.5,4.94,2.58,0,5.16-.1,7.73-.18l.04-.03Zm-53.31,.39c-.18-4.9-.39-9.8-.39-14.7,.03-1.94,0-3.95,.07-5.92,.11-2.43,.32-4.87,.32-7.3-.64,.04-1.29,.04-1.93,.04-2.36,.03-4.8-.07-7.2-.21,.36,3.91,.54,7.9,.54,11.88,0,1.98-.04,3.95-.07,5.92-.07,3.24-.39,6.56-.79,9.84l9.45,.46Zm-22.7-8.39c-1.25,.49-7.27,.78-8.81,.78-.82,0-2.33,0-3.08-.28-.11-.07-.14-.21-.14-.32,0-1.3,3.01-5.43,3.83-6.73,2.76-4.23,5.44-8.5,8.09-12.8-2.69,.25-5.41,.32-8.13,.32-5.55,0-11.06-.32-16.58-.53-.72,2.43-1.54,5.47-1.68,7.97,2.4-.78,5.76-1.02,8.31-1.02,.64,0,3.69,0,4.12,.49,.03,.07,.03,.25,.03,.32,0,1.16-1.93,4.16-2.61,5.25-2.97,4.62-5.91,9.27-8.99,13.79-.07,.07-.72,.99-.79,.99,.04,.04,.04,0,.04,0,6.16,0,12.32-.28,18.48-.28,.54,0,6.48,.11,6.7-.07,.14-.11,1.11-7.02,1.18-7.86h.04Z"></path><path class="cls-3" d="M217.72,220.36h3.28v-11.94h4.54v-3.04h-12.36v3.04h4.54v11.94Zm-22.9,0h3.28v-4.79h2.58l3.19,4.79h3.83l-3.64-5.35c.95-.36,1.72-.92,2.31-1.68,.59-.76,.88-1.75,.88-2.96v-.04c0-1.43-.43-2.57-1.28-3.42-1.01-1.01-2.46-1.52-4.35-1.52h-6.82v14.97Zm3.28-7.7v-4.3h3.26c.81,0,1.44,.18,1.9,.53,.45,.36,.68,.89,.68,1.6v.04c0,.64-.22,1.16-.65,1.54-.43,.38-1.05,.58-1.86,.58h-3.32Zm-14.99,7.35c.97-.41,1.81-.96,2.51-1.67,.7-.71,1.25-1.53,1.65-2.46,.4-.93,.6-1.94,.6-3.01v-.04c0-1.07-.2-2.07-.59-3-.39-.93-.94-1.75-1.64-2.44-.7-.69-1.54-1.24-2.5-1.65-.97-.41-2.02-.61-3.17-.61s-2.21,.2-3.18,.61c-.97,.41-1.81,.96-2.51,1.67-.7,.71-1.25,1.53-1.65,2.46-.4,.93-.6,1.94-.6,3v.04c0,1.07,.19,2.07,.59,3,.39,.94,.94,1.75,1.64,2.44,.7,.69,1.54,1.24,2.5,1.65,.97,.41,2.02,.61,3.17,.61s2.21-.2,3.18-.61m-4.96-2.8c-.55-.25-1.02-.59-1.43-1.02-.4-.43-.72-.93-.94-1.5-.22-.57-.33-1.18-.33-1.82v-.04c0-.64,.11-1.24,.33-1.81s.53-1.06,.92-1.49c.39-.43,.86-.76,1.41-1.01,.55-.24,1.15-.36,1.82-.36s1.26,.12,1.81,.37c.55,.25,1.03,.59,1.44,1.02,.4,.43,.72,.93,.94,1.5,.22,.57,.33,1.18,.33,1.82v.04c0,.64-.11,1.24-.33,1.81-.22,.56-.53,1.06-.92,1.49-.39,.43-.86,.76-1.42,1.01-.55,.24-1.16,.36-1.81,.36s-1.28-.12-1.82-.37m-15.59,3.06c.66-.21,1.24-.51,1.72-.9,.48-.39,.85-.88,1.12-1.45,.27-.58,.4-1.24,.4-1.98v-.04c0-.66-.1-1.22-.31-1.69-.21-.47-.51-.88-.92-1.23-.41-.35-.9-.65-1.5-.9-.59-.25-1.26-.47-2.02-.67-.64-.17-1.17-.32-1.59-.45-.42-.13-.75-.26-.99-.41-.24-.14-.41-.3-.5-.48-.09-.18-.14-.39-.14-.63v-.04c0-.37,.16-.68,.48-.93,.32-.25,.8-.38,1.44-.38s1.28,.13,1.92,.4c.64,.26,1.29,.62,1.96,1.08l1.7-2.48c-.77-.61-1.61-1.08-2.52-1.41-.92-.33-1.92-.49-3.01-.49-.77,0-1.47,.11-2.11,.32-.64,.21-1.18,.52-1.64,.92-.46,.4-.81,.87-1.07,1.42-.25,.55-.38,1.17-.38,1.85v.04c0,.74,.12,1.36,.35,1.86,.24,.5,.57,.92,.99,1.25,.43,.34,.95,.62,1.56,.85,.61,.23,1.29,.43,2.05,.62,.63,.16,1.14,.31,1.53,.45,.39,.14,.7,.29,.92,.43,.22,.14,.37,.3,.45,.46,.08,.16,.12,.35,.12,.57v.04c0,.44-.19,.79-.57,1.04-.38,.25-.9,.38-1.59,.38-.85,0-1.64-.16-2.35-.49-.72-.33-1.42-.77-2.1-1.33l-1.94,2.33c.89,.81,1.89,1.42,2.98,1.81,1.09,.39,2.21,.59,3.34,.59,.81,0,1.55-.1,2.21-.31m-25.84,.1h11.33v-2.93h-8.1v-3.14h7.03v-2.93h-7.03v-3.04h7.99v-2.93h-11.23v14.97Zm-19.43,0h3.28v-4.79h2.58l3.2,4.79h3.83l-3.64-5.35c.95-.36,1.72-.92,2.31-1.68,.59-.76,.88-1.75,.88-2.96v-.04c0-1.43-.43-2.57-1.28-3.42-1.01-1.01-2.46-1.52-4.35-1.52h-6.82v14.97Zm3.28-7.7v-4.3h3.26c.81,0,1.44,.18,1.9,.53,.45,.36,.68,.89,.68,1.6v.04c0,.64-.22,1.16-.65,1.54-.43,.38-1.06,.58-1.86,.58h-3.32Zm-23.52,7.61c.67-.21,1.24-.51,1.72-.9,.48-.39,.85-.88,1.12-1.45,.27-.58,.4-1.24,.4-1.98v-.04c0-.66-.1-1.22-.31-1.69-.21-.47-.51-.88-.92-1.23-.41-.35-.9-.65-1.49-.9-.59-.25-1.26-.47-2.02-.67-.64-.17-1.17-.32-1.59-.45-.42-.13-.75-.26-.99-.41-.24-.14-.41-.3-.5-.48-.09-.18-.14-.39-.14-.63v-.04c0-.37,.16-.68,.48-.93,.32-.25,.8-.38,1.44-.38s1.28,.13,1.92,.4c.64,.26,1.29,.62,1.96,1.08l1.7-2.48c-.77-.61-1.61-1.08-2.53-1.41-.92-.33-1.92-.49-3.01-.49-.77,0-1.47,.11-2.1,.32-.64,.21-1.18,.52-1.64,.92-.46,.4-.81,.87-1.07,1.42-.25,.55-.38,1.17-.38,1.85v.04c0,.74,.12,1.36,.35,1.86,.24,.5,.57,.92,.99,1.25,.43,.34,.95,.62,1.56,.85,.61,.23,1.3,.43,2.05,.62,.63,.16,1.13,.31,1.53,.45,.39,.14,.7,.29,.92,.43,.22,.14,.37,.3,.45,.46,.08,.16,.12,.35,.12,.57v.04c0,.44-.19,.79-.56,1.04-.38,.25-.9,.38-1.59,.38-.85,0-1.64-.16-2.35-.49-.72-.33-1.42-.77-2.1-1.33l-1.94,2.33c.89,.81,1.89,1.42,2.98,1.81,1.09,.39,2.21,.59,3.34,.59,.81,0,1.55-.1,2.21-.31m-25.83,.1h11.33v-2.93h-8.09v-3.14h7.03v-2.93h-7.03v-3.04h7.99v-2.93h-11.23v14.97Zm-19.58,0h3.28v-4.58l1.72-1.8,4.62,6.37h3.94l-6.35-8.62,6.07-6.35h-3.96l-6.05,6.55v-6.55h-3.28v14.97Zm-22.13,0h3.34l1.36-3.36h6.31l1.36,3.36h3.43l-6.39-15.08h-3.02l-6.39,15.08Zm5.88-6.27l1.98-4.85,1.98,4.85h-3.96Zm-21.81,6.27h10.72v-2.97h-7.44v-12h-3.28v14.97Z"></path><path class="cls-3" d="M46.76,13.69c-1.84,.34-3.25,1.4-4.74,2.46-1.1-2.55-2.01-5.16-3.47-7.56-.41,.1-.8,.21-1.26,.32,.15,.26,.27,.47,.39,.68,1.19,2.13,2.32,4.3,2.88,6.7,.24,1.03,.23,2.03-.21,3.01-.41,.93-.74,1.89-1.23,2.77-1.09,1.97-1.11,4.01-.61,6.11,.02,.09,.04,.18,.06,.27,0,.03,0,.06,0,.16-.26-.04-.52-.06-.77-.11-1.74-.34-3.45-.77-5.04-1.58-.21-.11-.37-.2-.37-.51,.01-5.76,.01-11.52,.01-17.29,0-.04,0-.09,.02-.16,.62-.06,1.26-.08,1.88-.2,2.24-.46,4.47-.95,6.69-1.45,.36-.08,.53-.03,.67,.31,.69,1.74,1.41,3.46,2.12,5.2,.04,.11,.09,.22,.15,.38,.62-.19,1.22-.37,1.92-.57-.86-1.95-1.7-3.85-2.55-5.77,1.54-.32,3.09-.65,4.66-.99-.11,.63-.26,1.32-.34,2-.95,8.27,1.98,16.03,10.31,20.66,2.9,1.62,5.95,2.92,9.02,4.18,7.72,3.18,15.2,6.84,22.58,10.73,7.41,3.91,12.96,9.55,16.93,16.81,2.97,5.42,5.11,11.11,6.23,17.17,.59,3.21,.91,6.44,.57,9.7-.12,1.2-.38,2.39-.67,3.56-.39,1.58-1.36,2.85-2.56,3.93-2.35,2.12-4.71,4.24-7.09,6.33-4.05,3.55-8,7.19-11.4,11.37-3.14,3.87-5.72,8.05-7.25,12.8-1.22,3.79-1.63,7.66-1.24,11.61,.05,.48,.25,.94,.39,1.42,.05,.19,.11,.38,.19,.62h-.55c-4.93,0-9.87,0-14.8-.01-.26,0-.57-.12-.78-.29-2.2-1.83-3.85-4.03-4.7-6.77-.72-2.32-.86-4.7-.57-7.1,.64-5.25,2.34-10.19,4.99-14.76,1.42-2.45,3.23-4.68,4.96-6.95,2.79-3.67,5.48-7.4,7.54-11.53,1.9-3.8,3.37-7.76,4.26-11.92,.2-.93,.17-1.91,.18-2.88,0-1.86,.42-3.56,1.83-4.89,.52-.49,1.1-.95,1.71-1.34,.79-.51,1.7-.62,2.64-.55,.9,.07,1.8,.07,2.71,.06,.91-.01,1.78,.13,2.66,.36,2.33,.61,4.6,.34,6.75-.72,1.01-.5,1.75-1.31,2.39-2.22,.83-1.18,1.43-2.47,1.86-3.84,.05-.14,.05-.35-.03-.47-.3-.51-.64-1.01-.99-1.56-.25,.68-.45,1.32-.72,1.92-.37,.79-.76,1.58-1.21,2.32-1.12,1.87-2.79,2.8-5.01,2.83-2.11,.03-4.1-.53-6.21-1.03,.64-.36,1.21-.67,1.77-.99,2.13-1.21,4.08-2.65,5.84-4.33,1.02-.98,1.9-2.07,2.24-3.48,.18-.74,.21-1.48,0-2.28-.49,.12-.96,.24-1.46,.36,.42,2.28-.86,3.73-2.46,5.02-1.37,1.11-2.95,1.87-4.54,2.61-1.26,.59-2.55,1.14-3.8,1.76-2.44,1.21-4.85,2.47-7.33,3.73,.16-.66,.27-1.36,.5-2.03,1.01-3,2.68-5.58,5.14-7.64,.86-.72,1.84-1.24,2.94-1.53,3.56-.94,7.11-1.9,10.66-2.85,.07-.02,.14-.05,.27-.09-.39-.9-.83-1.75-1.61-2.37-.1-.08-.32-.04-.47,0-1.31,.31-2.62,.64-3.94,.93-.41,.09-.86,.07-1.39,.1,.08-.22,.1-.34,.17-.45,.08-.13,.17-.26,.28-.37,1.17-1.12,1.44-2.56,1.54-4.07,0-.1-.02-.23-.08-.29-.57-.47-1.16-.92-1.73-1.37-.36,1.01-.66,1.99-1.04,2.93-.49,1.2-1.28,2.22-2.26,3.06-1.06,.9-2.4,1.06-3.74,1.05,.15-.98,.31-1.91,.42-2.85,.27-2.27-.07-4.46-1.02-6.55-.41-.91-.79-1.83-1.22-2.73-.09-.2-.29-.4-.49-.5-.66-.34-1.34-.63-2.14-1,.16,.23,.25,.35,.34,.48,2.37,3.52,3.18,7.34,2.16,11.47-.21,.84-.59,1.64-.91,2.46-.04,.1-.14,.2-.24,.26-1.25,.82-2.38,1.77-3.32,2.94-.19,.24-.48,.44-.77,.58-.29,.14-.58,.07-.57-.33,0-.66-.02-1.32,.07-1.97,.56-4.11-.34-7.93-2.2-11.6-1.05-2.06-2.04-4.16-3.01-6.26-.31-.68-.49-1.42-.71-2.14-.22-.72-.21-.73-1.06-.91,.19,.81,.29,1.6,.57,2.33,.96,2.59,1.98,5.15,2.97,7.73,1,2.6,1.89,5.24,1.68,8.08-.16,2.24-.44,4.48-.71,6.71-.05,.4-.23,.79-.43,1.15-.32,.57-.67,1.15-1.08,1.66-1.37,1.72-2.25,3.69-3.05,5.71-.4,1.02-.95,1.96-1.64,2.87-.42-.52-.83-.99-1.21-1.49-1.02-1.37-2.03-2.75-3.03-4.14-.99-1.38-1.39-2.95-1.43-4.63-.05-2.15,.24-4.24,1.03-6.26,.69-1.77,1.88-3.15,3.32-4.36,.3-.25,.58-.52,.89-.74,1.66-1.17,2.45-2.84,2.8-4.76,.11-.59,.19-1.18,.26-1.77,.12-1.04-.23-2.58-.83-3.73-.06,.64-.06,1.23-.18,1.79-.3,1.42-.57,2.85-1.02,4.23-.52,1.6-1.6,2.86-3.01,3.82-3.5,2.41-5.21,5.78-5.49,9.91-.09,1.31-.12,2.63-.18,4.02-.92-.35-1.78-.69-2.24-1.6-.68-1.34-.82-2.78-.72-4.25,.03-.5,.12-1,.19-1.5,.18-1.32,.8-2.42,1.68-3.42,1.19-1.34,2.43-2.62,3.82-3.76,.65-.54,1.2-1.26,1.65-1.98,1.11-1.77,2.17-3.57,3.19-5.39,.7-1.25,.82-2.66,.88-4.05,.04-.93-.02-1.87-.06-2.8,0-.12-.1-.3-.21-.35-.42-.2-.85-.36-1.36-.57,.02,.28,.04,.48,.06,.68,.25,3.34-.61,6.35-2.49,9.18-1.85,2.77-4.12,5.13-6.45,7.48-.59,.59-1.15,1.21-1.73,1.81-1.87,1.91-2.36,4.24-2.16,6.79,.03,.34,.09,.67,.12,1,.05,.49-.09,.63-.59,.67-.78,.06-1.34-.25-1.71-.94-.65-1.21-.95-2.51-1.23-3.84-.64-2.98,.06-5.74,1.38-8.4,1.16-2.35,2.39-4.67,3.52-7.04,.88-1.84,1.56-3.77,1.87-5.8,.29-1.88,.18-3.73-.43-5.54-.21-.62-.7-.88-1.37-.7,.12,.75,.23,1.5,.35,2.25,.33,1.97-.11,3.87-.59,5.76-.56,2.21-1.65,4.15-2.99,5.98-.14,.19-.35,.36-.57,.43-.44,.15-.64,0-.74-.45-.26-1.28-.63-2.52-1.26-3.68-.43-.8-.98-1.49-1.72-2.03-1.17-.86-2.35-1.71-3.53-2.57-.07-.05-.15-.09-.34-.2,.13,1.03,.24,1.95,.37,2.87,.01,.09,.12,.18,.2,.24,2.43,1.5,3.28,3.88,3.79,6.48,.33,1.69,.21,3.34-.1,5.02-.16,.85-.22,1.73-.27,2.6-.09,1.68-.12,3.37-.2,5.05-.01,.27-.1,.55-.21,.79-.28,.6-.78,.67-1.19,.15-.2-.25-.4-.54-.46-.84-.18-.94-.47-1.91-.4-2.84,.21-2.7-.24-5.29-.86-7.91-.49-2.06-.75-4.19-1.04-6.29-.28-2.08-.51-4.17-.7-6.26-.24-2.57-.03-5.13,.32-7.7,.3-2.2,.99-4.25,1.9-6.26,.09-.19,.08-.48,.01-.68-.29-.79-.62-1.57-.96-2.41-.22,.36-.43,.68-.61,1.01-1.65,3.14-2.63,6.45-2.81,10.01-.19,3.85,0,7.69,.15,11.53,.13,3.52,.82,6.96,1.31,10.43,.12,.86,.2,1.74,.17,2.61-.07,2.46-1.94,2.53-3.37,1.85-.58-.28-1.1-.76-1.54-1.24-1.31-1.41-2.29-3.06-3.16-4.75-2.24-4.34-4.29-8.77-5.62-13.48-.09-.33-.14-.69-.14-1.04-.01-2.19,0-4.38,0-6.64,.42,.18,.79,.35,1.17,.5,1.04,.4,2.1,.75,3.13,1.19,.67,.28,1.3,.66,1.92,1.03,.58,.34,1.05,.78,1.41,1.37,.63,1.06,1.46,1.94,2.52,2.6,.34,.21,.7,.38,1.16,.62-.04-.92-.07-1.74-.13-2.55,0-.11-.17-.21-.26-.31-1.51-1.53-2.67-3.26-3.12-5.39-.27-1.26-.12-2.49,.22-3.72,.58-2.12,1.49-4.08,2.67-5.94,.73-1.16,1.73-1.94,3.02-2.4,.75-.26,.74-.28,.63-1.16"></path><path class="cls-3" d="M157.23,7.57c.06,.65,.09,1.19,.17,1.71,.03,.18,.18,.39,.33,.48,4.32,2.67,7.3,6.36,8.78,11.19,.44,1.45,.75,2.94,1.23,4.38,.37,1.11,.86,2.19,1.35,3.26,.15,.32,.47,.57,.77,.92,.62-.94,1.17-1.76,1.7-2.6,.06-.1,.03-.29-.03-.41-.26-.56-.57-1.09-.82-1.65-1.01-2.27-1.98-4.55-2.99-6.82-.66-1.49-1.34-2.97-2.41-4.23-.36-.42-.45-.85-.37-1.35,.35-2.13-.08-4.14-.99-6.07-.05-.12-.15-.26-.25-.3-.34-.13-.7-.22-1.15-.35,.77,1.98,1.31,3.91,.86,6.02-1.86-1.65-3.88-3.02-6.19-4.16m-6.5,30.88c0,.78-.05,1.53,0,2.27,.22,2.85,.67,5.66,1.5,8.4,.27,.9,.7,1.77,1.16,2.59,.59,1.05,1.4,1.91,2.62,2.39-.2,.41-.39,.81-.59,1.2-1.45,2.81-2.89,5.63-3.92,8.62-1.33,3.84-1.99,7.78-1.7,11.84,.54,7.74,3.06,14.8,7.52,21.2,2.1,3.01,4.58,5.72,6.96,8.52,1.48,1.74,2.94,3.49,4.32,5.31,1.9,2.5,2.82,5.39,3.22,8.46,.38,2.88,.55,5.76,.37,8.67-.16,2.55-.51,5.06-1.49,7.44-.5,1.21-1.15,2.31-2.16,3.18-.16,.14-.41,.23-.62,.23-10.82,.01-21.63,0-32.45,0-.16,0-.35-.02-.49-.1-2.81-1.58-5.2-3.59-6.72-6.45-1.48-2.79-1.61-5.7-.75-8.7,.97-3.38,2.52-6.47,4.46-9.4,1.3-1.96,2.61-3.92,3.76-5.97,1.44-2.54,2.13-5.34,2.53-8.21,.45-3.25,.68-6.52,.58-9.81-.17-5.88-1.59-11.47-3.96-16.85-.79-1.78-1.65-3.53-2.11-5.44-.52-2.15-.32-4.24,.33-6.34,2.68-8.72,8.02-15.46,15.66-20.5,.33-.22,.48-.44,.46-.85-.04-.67,0-1.35,0-2.06-.09,.03-.16,.04-.22,.07-2.71,1.93-5.45,3.82-8.12,5.79-1.89,1.4-3.41,3.18-4.94,4.93-.11,.13-.22,.25-.41,.46-.05-.46-.1-.82-.12-1.19-.17-2.37,.21-4.66,.9-6.93,.85-2.74,1.76-5.46,3.19-7.96,.33-.58,.74-1.13,1.13-1.7,.1,.06,.15,.09,.19,.13,2.6,2.8,5.83,4.54,9.5,5.55,3.66,1.02,7.33,2.01,11,3.02,.25,.07,.49,.17,.78,.26,.79-1.09,1.6-2.2,2.42-3.33-.08-.09-.14-.19-.23-.27-2.38-2.1-3.77-4.78-4.49-7.79-.68-2.86-1.22-5.75-1.78-8.64-.29-1.47-.98-2.77-1.62-4.09-.42-.87-.94-1.69-1.38-2.55-.09-.17-.12-.44-.06-.62,.63-1.82,1.05-3.68,1.13-5.61,.07-1.54-.07-3.06-.62-4.52-.08-.21-.3-.42-.51-.51-.57-.25-1.16-.43-1.81-.66,.88,3.24,.57,6.4-.36,9.61-2.24-1.68-4.65-2.93-7.36-3.71-.02,.34-.07,.6-.03,.85,.02,.12,.17,.27,.3,.32,1.87,.73,3.57,1.72,5.09,3.02,.39,.33,.73,.71,1.12,1.04,.28,.23,.22,.46,.11,.73-1.91,4.67-4.71,8.68-8.81,11.76-.86,.65-1.69,1.35-2.64,2.11-.67-1.26-1.34-2.49-1.99-3.71-.32,1.01-.67,2.07-.99,3.14-.04,.15,.03,.37,.11,.51,.37,.62,.76,1.23,1.17,1.88-.2,.26-.43,.54-.64,.84-1.95,2.62-3.29,5.54-4.49,8.54-1.44,3.61-2.63,7.3-3.35,11.11-.41,2.15-1.41,3.97-2.94,5.53-.58,.59-1.16,1.19-1.77,1.83-.22-.24-.37-.39-.49-.56-1.99-2.67-2.35-5.6-1.39-8.72,.74-2.41,1.94-4.61,3.38-6.67,1.9-2.73,3.9-5.39,5.86-8.07,1.79-2.43,3.35-4.98,4.2-7.89,1.18-4.02,.89-7.93-.96-11.72-.03-.07-.06-.14-.1-.22,1.69-1.83,3.21-3.74,3.91-6.18,.69-2.4,.83-4.82,.26-7.3,.74,0,1.44-.02,2.14,.02,.12,0,.29,.23,.33,.38,1.14,3.78,.66,7.35-1.47,10.71-1,1.57-2.17,2.99-3.73,4.1,.21,.62,.43,1.24,.71,2.04,.23-.29,.38-.55,.6-.75,1.28-1.22,2.52-2.46,3.54-3.9,2.07-2.92,2.83-6.16,2.4-9.68-.12-.96-.3-1.9-.46-2.91,.67,0,1.37-.01,2.06,.02,.12,0,.25,.19,.33,.33,.94,1.62,1.99,3.16,3.45,4.36,.69,.57,1.48,1.01,2.23,1.5,.14,.09,.31,.13,.48,.2,0-.44,.03-.83-.02-1.22-.02-.13-.22-.28-.37-.35-1.97-1.01-3.57-2.39-4.57-4.37-.07-.13-.13-.27-.22-.46,1.2,.05,2.33-.09,3.47,.26,3.77,1.17,7.42,2.63,10.98,4.33,2.82,1.34,5.13,3.28,7.23,5.5,.86,.91,1.7,1.84,2.46,2.82,1.22,1.58,1.7,3.41,1.9,5.38,.45,4.39-.79,8.3-3.13,11.95-.5,.78-1.01,1.54-1.53,2.31-.03,.05-.08,.09-.14,.16-.64-.36-1.18-.81-1.63-1.4-1.57-2.06-2.41-4.42-3.14-6.86-.82-2.76-1.81-5.47-2.79-8.17-.59-1.62-1.51-3.06-2.92-4.13-.47-.36-1.01-.64-1.6-1-.2,.73-.37,1.35-.55,2.01,1.77,.76,2.62,2.24,3.28,3.9,1.26,3.19,2.1,6.5,3.01,9.79,.28,1.01,.58,2,.83,3.01,.53,2.12,1.58,3.98,2.98,5.66,.1,.12,.19,.24,.29,.38-.7,1.05-1.44,2.08-2.1,3.15-2.13,3.47-4.25,6.95-6.35,10.44-.22,.36-.44,.42-.79,.3-1.19-.38-2.12-1.06-2.73-2.16-.77-1.4-1.26-2.9-1.57-4.45-.26-1.29-.42-2.6-.59-3.9-.04-.35-.15-.51-.5-.56-.49-.08-.97-.19-1.44-.29"></path><path class="cls-3" d="M36.55,138.76h-4.11V43.63c.39,.79,.75,1.49,1.09,2.2,1.41,2.93,2.82,5.86,4.21,8.8,1.4,2.99,3.68,5.15,6.49,6.84,3.05,1.83,6.28,3.29,9.51,4.76,1.88,.86,3.77,1.68,5.34,3.07,4.25,3.77,6.3,8.43,5.8,14.08-.32,3.54-1.76,6.7-3.73,9.64-1.38,2.05-3.02,3.89-4.77,5.64-3.99,3.99-7.89,8.05-11.37,12.49-2.75,3.51-5.15,7.22-6.65,11.43-1.4,3.92-2.28,7.96-2.27,12.13,0,1.35,.3,2.69,.46,4.04"></path><path class="cls-3" d="M205.63,38.43v99.54s-.1,0-.13-.03c-3.37-2.85-6.31-6.05-8.24-10.04-1.73-3.59-2.83-7.38-3.49-11.29-.45-2.66-.84-5.33-1.45-7.95-.85-3.64-2.8-6.75-5.18-9.61-1.97-2.37-4.18-4.52-6.79-6.2-1.8-1.16-3.77-2.07-5.66-3.09-.2-.11-.41-.21-.79-.41,.19-.1,.32-.15,.43-.24,1.01-.87,2.01-1.74,3.02-2.6,.09-.08,.25-.16,.36-.14,2.58,.39,4.75-.4,6.57-2.19,2.17-2.14,3.85-4.61,5.09-7.37,1.4-3.1,2.17-6.38,2.72-9.71,.33-2.03,.68-4.06,.55-6.12-.07-1.15-.22-2.29-.31-3.43-.02-.29-.02-.64,.12-.87,.5-.78,.99-1.61,1.64-2.26,1.34-1.36,2.75-2.67,4.2-3.92,3.69-3.21,6.01-7.21,7.23-11.86,.02-.06,.02-.12,.04-.18,0,0,.03-.01,.06-.03"></path><path class="cls-3" d="M168.28,84.67c-.08-.22-.16-.42-.22-.62-.68-2.05-1.13-4.12-.47-6.26,.68-2.18,1.7-4.2,2.99-6.1,1.44-2.11,3.22-3.93,5.01-5.74,.65-.66,1.38-1.31,1.79-2.1,.77-1.49,1.37-3.08,1.97-4.65,.16-.42,.2-.96,.08-1.39-.16-.61-.51-1.17-.78-1.75-.05-.01-.1-.03-.14-.04-.81,4.52-2.83,8.26-6.9,10.65,.24-1.99-.19-3.93-.98-5.78,.18-.19,.38-.35,.51-.55,.5-.77,.99-1.56,1.47-2.35,.9-1.47,1.26-3.09,1.27-4.78,0-1.62-.4-3.18-.77-4.75-.23-.99-.93-1.38-1.75-1.88,.06,.15,.07,.22,.1,.29,.62,1.45,.98,2.96,1.18,4.52,.41,3.12-1.01,5.49-3.11,7.57-2.37-2.44-3.21-5.53-3.87-8.82-.24,.47-.39,.83-.6,1.17-.26,.42-.27,.83-.17,1.31,.57,2.65,1.47,5.15,3.09,7.37,1.22,1.68,1.69,3.55,1.36,5.61-.2,1.22-.32,2.46-.49,3.68-.02,.13-.1,.25-.18,.36-.66,.94-1.35,1.87-1.99,2.83-1.22,1.83-2.34,3.73-3.96,5.27-.65,.61-.78,1.43-.53,2.26,.48,1.57,1.32,2.94,2.59,4.02,.36,.3,.8,.53,1.24,.7,.73,.28,1.49,.26,2.25-.06M202.91,.01c-.36,3.3-.46,6.56-1.17,9.76-.36,1.63-1.27,2.68-2.84,3.22-.26,.09-.52,.23-.79,.27-1.51,.25-2.68,1.1-3.81,2.02-.46,.38-.93,.74-1.45,1.15-.15-2.32-.29-4.58-.43-6.83-.05-.02-.11-.04-.16-.06-.38,.27-.77,.53-1.14,.82-.07,.06-.06,.25-.05,.38,.12,1.31,.22,2.63,.37,3.93,.28,2.47-.58,4.71-1.38,6.96-.53,1.48-1.45,2.7-2.66,3.71-.37,.31-.77,.6-1.18,.91-1.01-3.37-.56-6.74-.55-10.11-.52,.27-.86,.66-.93,1.2-.41,3.12-.4,6.22,.12,9.34,.21,1.25,.26,2.53,.31,3.8,.04,.92-.17,1.78-1.1,2.41-.28-.29-.64-.61-.92-.97-.71-.92-.93-2.03-1.13-3.13-.31-1.65-.55-3.32-.85-4.98-.08-.43-.23-.85-.39-1.41-.27,.6-.48,1.07-.69,1.55-.02,.05-.01,.12,0,.18,.14,1.12,.28,2.24,.43,3.36,.24,1.8,.37,3.64,1.24,5.29,.3,.57,.64,1.12,.99,1.66,.16,.24,.21,.42,.07,.7-.93,1.94-1.4,4-1.77,6.11-.41,2.31-.99,4.59-1.52,6.97-.62-.55-1.13-.99-1.61-1.46-.09-.09-.1-.31-.08-.46,.18-1.26,.4-2.51,.57-3.77,.15-1.11,.02-2.18-.39-3.24-.63-1.61-1.14-3.27-1.7-4.9-.04-.11-.08-.23-.15-.41-.09,.16-.16,.27-.22,.38-.47,1-.94,2-1.42,3-.12,.24-.12,.42,.05,.66,.91,1.29,1.24,2.77,1.25,4.31,0,.8-.55,1.44-.96,2.14-1.22-.9-2.39-1.78-3.61-2.69-.69,.81-1.37,1.6-2.08,2.43,.16,.11,.3,.19,.44,.29,1.25,.91,2.52,1.8,3.75,2.73,2.54,1.92,4.05,4.57,5.35,7.36,1.33,2.87,2.18,5.86,2.23,9.04,.03,2.1-.46,4.1-1.21,6.04-1.66,4.31-3.78,8.36-6.78,11.93-1.19,1.41-2.52,2.67-4.14,3.6-1.89,1.08-3.51,.89-5.09-.6-1.35-1.28-2.22-2.87-2.94-4.54-1.22-2.79-2.05-5.68-2.34-8.71-.09-.9,.09-1.83,.24-2.73,.81-4.95,2.05-9.8,3.94-14.47,1.89-4.68,4.52-8.96,7.49-13.04,1.84-2.53,3.73-5.02,5.23-7.77,.95-1.74,1.66-3.58,2.24-5.48,.87-2.85,2.19-5.49,3.93-7.93,1.86-2.6,4.05-4.94,6.28-7.22,2.4-2.46,4.94-4.8,7.4-7.21,1.27-1.24,2.59-2.44,3.53-3.96,.21-.34,.45-.67,.59-1.04,.17-.42,.43-.51,.85-.49,.88,.03,1.77,0,2.74,0"></path><path class="cls-3" d="M186.64,30.46c-.03-.65-.08-1.38-.1-2.11,0-.13,.11-.3,.22-.4,.44-.39,.9-.76,1.35-1.13,1.53-1.22,2.57-2.77,3.23-4.58,.27-.72,.55-1.43,.81-2.15,.41-1.13,1.07-2.01,2.05-2.81,1.26-1.02,2.67-1.66,4.13-2.25,.58-.24,1.1-.22,1.63,.13,.32,.21,.68,.37,1.03,.54,.96,.5,1.94,.56,2.97,.18,.51-.19,1.07-.26,1.68-.4v.63c0,3.88-.03,7.75,.02,11.63,.02,1.58-.27,3.1-.6,4.63-.21,.97-.47,1.95-.49,2.93-.07,3.45-1.35,6.42-3.42,9.15-1.84,2.43-3.81,4.75-6.33,6.51-.86,.6-1.85,1.06-2.82,1.48-.67,.29-.72,.2-.92-.49-1.36-4.71-3.23-9.22-5.45-13.6-.05-.11-.12-.21-.21-.35-.24,.51-.5,.97-.68,1.45-.06,.15,.03,.38,.11,.54,2.12,4.39,3.83,8.93,4.96,13.67,.57,2.39,.92,4.81,1.06,7.26,.17,3.01-.6,5.86-1.49,8.69-1.04,3.32-2.67,6.34-5.04,8.92-1.1,1.19-2.46,2.11-3.96,2.79-.11,.05-.23,.09-.35,.11-.49,.1-.78-.13-.68-.62,.11-.49,.26-.98,.47-1.43,.83-1.75,1.71-3.47,2.52-5.22,1.69-3.66,2.47-7.5,2.18-11.53-.17-2.38-.6-4.72-1.47-6.95-.9-2.31-1.2-4.66-1.04-7.11,.19-3,.46-5.99,1.22-8.91,.37-1.43,.81-2.84,1.6-4.1,.5-.78,1.09-1.53,1.77-2.16,1-.93,2.27-1.22,3.64-1.05,.87,.11,1.43,.58,1.54,1.3,.12,.72-.36,1.92-1.01,2.06-.7,.16-1.48,.13-2.2,.05-.67-.07-1.06,.22-.95,.89,.38,2.28,2.84,3.54,4.96,2.53,2.21-1.04,3.32-3.7,2.55-6.13-.84-2.66-3.01-3.79-5.83-3.4-.92,.12-1.8,.51-2.68,.77"></path><path class="cls-3" d="M112.12,41.29c.61-.9,1-2.01,1.34-3.14,.37-1.21,.72-2.44,1.12-3.65,.48-1.43,1.24-2.71,2.31-3.79,1.36-1.37,2.75-2.71,4.19-4.13-.57-.23-1.08-.46-1.61-.65-.11-.04-.31,.1-.44,.2-1.85,1.36-3.42,2.98-4.83,4.77-.1,.12-.19,.24-.29,.35-1.21-1.39-1.73-2.99-1.43-4.78,.19-1.17,.48-2.34,.88-3.46,.25-.72,.78-1.34,1.19-2,.08-.13,.18-.25,.28-.37,.62-.66,.71-1.38,.21-2.16,0,0-.04-.01-.05,0-1.69,2.03-3.11,4.22-3.82,6.78-.63,2.28-.28,4.53,.38,6.75,.17,.56,.55,1.1,.54,1.64,0,.52-.39,1.03-.59,1.55-.19,.48-.33,.99-.56,1.46-.14,.29-.37,.58-.62,.78-.52,.42-1.24,.3-1.48-.31-.41-1.05-.78-2.13-1.04-3.23-.71-3.01-1.01-6.07-1.24-9.14-.06-.78-.09-1.56-.16-2.34-.03-.29,.06-.47,.31-.64,2-1.44,3.92-2.98,5.47-4.9,.97-1.21,1.63-2.59,2.37-3.94,.71-1.32,1.67-2.5,2.53-3.74,.2-.29,.42-.55,.65-.86,.37,.28,.69,.55,1.05,.79,.77,.51,1.03,.45,1.57-.31-.52-.47-1.04-.93-1.6-1.44,.93-.76,1.81-1.46,2.92-1.86,1.31-.48,2.61-.98,3.88-1.56,.96-.44,1.82-1.09,2.43-1.96,.41-.59,.7-1.25,1.05-1.88-.03-.04-.06-.07-.09-.11h.45c2.89,0,5.79,0,8.68,0,.37,0,.5,.1,.57,.46,.55,2.7,.3,5.29-.87,7.81-.63,1.35-1.72,2.35-2.69,3.53-.16-.18-.29-.34-.43-.49-2.19-2.42-4.92-3.79-8.23-3.82-3.85-.04-9.08,2.6-10.16,7.65-.71,3.32-.13,6.42,2.32,8.97,1.2,1.24,2.73,1.98,4.49,1.94,2.06-.04,3.85-.82,5.12-2.44,1.26-1.6,1.31-3.41,.41-5.2-.62-1.23-1.74-1.79-3.14-1.76-.19,0-.38,.07-.69,.13,.19,.17,.28,.26,.38,.34,.66,.46,.84,.92,.66,1.66-.17,.69-.65,1.06-1.33,1.18-1.13,.21-2.1-.23-2.71-1.19-1.96-3.07-.2-7.02,3.43-7.71,2.96-.56,5.27,.54,7.01,2.83,2.75,3.62,3.03,7.57,1.36,11.7-1.07,2.65-2.9,4.79-4.88,6.82-.74-1.67-.74-3.28,.05-4.93,.66-1.38,1.61-2.54,2.65-3.64,.79-.85,1.6-1.68,2.37-2.54,.14-.16,.23-.42,.23-.64,0-.58-.06-1.16-.09-1.78-.08,.03-.14,.04-.18,.07-2.87,2.69-5.42,5.62-7.11,9.19-.93,1.97-1.31,4.02-.93,6.17,.11,.62-.03,1.05-.51,1.52-1.57,1.55-3.06,3.18-4.56,4.79-.87,.93-1.77,1.81-2.87,2.47-1.81,1.08-3.53,1.13-5.36-.23-3.61-2.7-7.52-4.95-11.41-7.22-1.47-.86-2.82-1.76-3.87-3.15-.95-1.26-2.15-2.35-2.88-3.77-.34-.65-.58-1.35-.81-2.04-.19-.56,0-1.08,.36-1.55,1.94-2.53,4.25-4.64,7.14-6.07,1.12-.55,2.28-1.03,3.51-1.59,0,.83-.06,1.55,.01,2.25,.1,.92-.21,1.48-1.05,1.97-3.12,1.8-4.64,4.73-5.52,8.03-.21,.8-.19,1.74,0,2.55,.22,.89,.72,1.74,1.8,2.06,.06-.68,.1-1.38,.18-2.06,.25-2.05,.69-4.04,1.68-5.89,.66-1.24,1.61-2.22,2.83-2.94,.02,.03,.06,.07,.06,.1,.43,3.8,.85,7.61,1.28,11.41,.1,.87,.19,1.74,.32,2.6,.03,.19,.17,.43,.34,.53,.59,.36,1.22,.68,1.83,1.01,1.3,.72,2.59,1.44,3.95,2.2"></path><path class="cls-3" d="M69.65,24.14c-1.55-.73-3.03-1.43-4.55-2.15,.09-.22,.15-.37,.22-.52,.44-1.04,.88-2.09,1.33-3.13,.49-1.12,.49-2.25,.18-3.42-.69-2.61-1.88-4.95-3.76-6.94-.07-.08-.13-.17-.2-.26-.59,.38-1.1,.76-1.31,1.39-.05,.15-.04,.38,.05,.51,1.51,2.22,2.24,4.57,1.21,7.2-.35,.9-.77,1.77-1.17,2.66-1.71-1.04-2.77-3.37-2.48-5.26,.24-1.57,.59-3.1,1.25-4.55,.89-1.96,2.28-3.45,4.23-4.43,.23-.12,.39-.12,.63,.03,1.1,.67,1.8,1.68,2.41,2.75,.36,.64,.69,1.29,1.04,1.95,.5-.38,.97-.75,1.52-1.17-.93-1.48-1.89-2.99-2.87-4.54,3.92-.87,7.72-1.09,11.07,1.57,2.9,2.3,3.06,6.6,.46,9.25-1.42,1.46-3.93,1.29-5.1,.61-.79-.46-1.07-1.18-1.19-1.97-.11-.69,.5-1.49,1.26-1.75,.35-.12,.72-.17,1.09-.26,.53-.12,.69-.45,.41-.91-.14-.23-.34-.44-.56-.6-1.01-.71-2.15-.99-3.36-.76-1.31,.25-2.19,1.09-2.71,2.28-1.17,2.7-.4,5.37,2.04,7.05,.33,.23,.38,.43,.32,.79-.25,1.57-.78,3.05-1.45,4.57"></path><path class="cls-3" d="M75.47,26.16c-.99-.33-2.01-.66-3.07-1.01,.72-1.64,.82-3.36,.93-5.12,.44,.07,.86,.17,1.28,.2,4.54,.24,8.18-2.68,8.88-7.1,.53-3.31-.09-6.34-2.25-8.99-1-1.22-2.22-2.18-3.64-2.9-.13-.07-.26-.14-.38-.24,1.57,.08,3.01,.55,4.35,1.33,1.92,1.11,3.47,2.63,4.73,4.43,1.01,1.44,1.25,3.12,1.28,4.82,.04,2.31,.04,4.63,0,6.94-.09,4.41,1.33,8.36,3.62,12.07,.07,.12,.15,.23,.25,.39-.11,0-.18,0-.24-.02-4.31-1.7-8.74-3.01-13.24-4.07-.47-.11-.56-.35-.43-.7,.2-.53,.4-1.07,.71-1.54,.88-1.32,2.1-2.28,3.56-2.95,1.08-.5,2.14-1.04,3.21-1.58,.29-.15,.53-.37,.8-.55,.94-.62,1.19-1.46,.82-2.46-.65,.57-1.31,1.18-2,1.73-1.2,.95-2.61,1.54-4,2.14-1.8,.78-3.25,1.96-4.3,3.61-.3,.48-.55,.99-.86,1.57"></path><path class="cls-3" d="M159.28,36.85c-.92-.16-1.77-.26-2.59-.45-1.2-.27-2.38-.6-3.57-.89-.28-.07-.36-.2-.37-.48-.11-1.83,.04-3.63,.34-5.44,.2-1.19,.12-2.44,.06-3.66-.08-1.62-.41-3.21-.97-4.84-.44,.56-.84,1.06-1.22,1.57-.05,.07-.05,.21-.01,.3,.89,2.34,.69,4.73,.24,7.11-.28,1.45-.48,2.9-.45,4.38,0,.06-.01,.11-.03,.21-3.08-1.18-5.88-2.74-8.29-5.04,.12-.13,.22-.26,.34-.37,1.56-1.48,3.12-2.95,4.68-4.42,2.68-2.55,4.79-5.5,6.38-8.82,.03-.07,.07-.13,.25-.24,.38,.95,.85,1.88,1.12,2.86,.81,2.98,1.4,6,1.43,9.1,.03,2.73,.96,5.22,2.02,7.68,.19,.45,.4,.89,.65,1.43"></path><path class="cls-3" d="M110.02,.01c-1.6,2.27-2.76,4.63-3.58,7.15-.03,.1-.08,.2-.09,.31-.06,.39-.28,.51-.68,.57-2.4,.39-4.74,.99-7.01,1.85-1.36,.52-2.56,1.31-3.72,2.16-.92,.67-1.84,1.37-2.8,1.98-1.12,.71-1.63,.43-1.64-.88,0-.51,.05-1.08,.29-1.51,2.48-4.6,5.75-8.53,10.21-11.42,.19-.12,.46-.19,.69-.19,2.63-.01,5.26,0,7.89,0h.45Z"></path><path class="cls-3" d="M176.03,.01c.89,0,1.76,0,2.63,.01,.1,0,.23,.13,.29,.23,.48,.79,.97,1.57,1.43,2.37,.55,.96,.52,1.99,.29,3.08-1.58-.56-3.05-1.23-3.76-2.85-.46,1.18-.57,1.13,.32,2.14,.99,1.12,2.35,1.69,3.73,2.18,.49,.18,1.02,.28,1.51,.46,.52,.2,1.06,.39,1.51,.69,.76,.52,.98,1.3,.69,2.16-.46,1.37-1.11,2.64-2.19,3.64-1.41,1.31-2.86,2.58-4.4,3.96-.82-4-2.51-7.37-5.47-10.16,2.68-1.98,4.18-4.47,3.42-7.92"></path><path class="cls-3" d="M106.4,19.7c.08-2.6,.43-5.14,1.1-7.64,.95-3.59,2.3-7.01,4.4-10.12,.39-.57,.81-1.12,1.25-1.66,.12-.15,.37-.25,.58-.26,.44-.04,.89-.01,1.47-.01-.9,.89-.94,1.89-.66,2.92,.43,1.59,.93,3.15,2.14,4.34-.72,.97-1.48,1.91-2.15,2.89-.52,.77-1.01,1.57-1.4,2.41-1.44,3.05-3.54,5.48-6.57,7.1-.03,.01-.06,0-.15,.02"></path><path class="cls-3" d="M90.71,17.17c.55-.29,.97-.45,1.31-.71,.66-.51,1.26-1.1,1.91-1.62,.76-.6,1.51-1.22,2.33-1.75,.92-.6,1.88-1.13,2.85-1.64,1.31-.68,2.75-.95,4.18-1.23,.8-.16,1.61-.28,2.48-.43-.15,.71-.3,1.35-.43,1.99-.21,1.08-.43,2.16-.61,3.25-.07,.41-.28,.6-.65,.73-1.22,.44-2.44,.9-3.66,1.35-1.87,.7-3.53,1.74-5.02,3.03-1.02,.89-2.17,1.58-3.35,2.22-.28,.15-.54,.11-.7-.13-.19-.28-.42-.61-.45-.93-.1-1.42-.14-2.84-.19-4.12"></path><path class="cls-3" d="M98.72,.04c-.73,.6-1.42,1.15-2.08,1.72-2.31,2.03-4.36,4.28-5.88,6.96-.3,.52-.66,1-.99,1.51-.12,.18-.21,.37-.32,.55-.06-.05-.12-.1-.19-.15-.03-.05-.07-.11-.07-.15,.08-1.4-.52-2.6-1.23-3.74-1.14-1.84-2.59-3.41-4.25-4.79-.93-.77-2.01-1.27-3.15-1.67-.19-.07-.37-.13-.68-.24h18.84Z"></path><path class="cls-3" d="M187.83,8.96c-.1-.38-.27-.76-.3-1.15-.13-1.75-.48-3.46-1.14-5.09-.37-.91-.88-1.78-1.34-2.68h12.75c-.14,.22-.26,.42-.39,.61-1.13,1.57-2.57,2.87-4.02,4.14-.76,.67-1.59,1.27-2.41,1.88-1.01,.75-2.04,1.48-3.15,2.29"></path><path class="cls-3" d="M32.44,.01c1.17,0,2.31,0,3.44,0,.1,0,.22,.04,.3,.1,1.94,1.53,3.4,3.43,4.52,5.65-2.74,.55-5.41,1.35-8.26,1.22V.01Z"></path><path class="cls-3" d="M42.37,5.32c-1.07-1.93-2.31-3.73-4.04-5.28h12.29c-.07,.12-.13,.22-.18,.32-.5,.9-.99,1.8-1.5,2.69-.08,.13-.18,.3-.31,.35-2,.63-4,1.24-6,1.86-.07,.02-.15,.04-.26,.06"></path><path class="cls-3" d="M203.88,.02h1.76v.49c0,4.24,0,8.48,0,12.73,0,.34-.08,.54-.42,.64-.65,.2-1.29,.46-1.95,.62-.79,.19-1.51,.04-2.07-.67,.1-.14,.18-.28,.29-.41,1.16-1.35,1.62-2.95,1.91-4.66,.45-2.74,.49-5.49,.47-8.24,0-.15,0-.3,0-.5"></path><path class="cls-3" d="M52.76,3.18c.62-1.06,1.18-2.04,1.76-3.01,.05-.09,.23-.15,.35-.15,4.51,0,9.02,0,13.53,0,.03,0,.06,.01,.01,0-1.24,.29-2.56,.55-3.85,.92-2.05,.58-3.86,1.6-5.4,3.07-.11,.1-.34,.21-.45,.17-1.42-.54-2.93-.69-4.42-.85-.45-.05-.9-.08-1.53-.14"></path><path class="cls-3" d="M53.71,15c-.7-.26-1.1-.75-1.4-1.33-.47-.88-.62-1.85-.71-2.83-.15-1.55,.1-4.1,.58-5.6,1.57,.25,3.06,.8,4.62,1.32-1.92,2.5-2.72,5.37-3.09,8.43"></path><path class="cls-3" d="M171.26,.03h3.39c.6,1.84-.3,4.35-2,5.43-.57,.36-1.22,.6-1.84,.88-.09,.04-.25,.02-.34-.03-.72-.42-1.43-.86-2.2-1.33,1.4-1.43,2.83-2.82,2.99-4.96"></path><path class="cls-3" d="M157.68,.03h12.03c-.25,.94-.7,1.74-1.45,2.31-.65,.49-1.39,.86-2.09,1.28-.07,.04-.21,.01-.29-.03-2.57-1.48-5.27-2.66-8.14-3.48-.02,0-.03-.04-.06-.08"></path><path class="cls-3" d="M180.26,.01c.88,0,1.77,0,2.66,.01,.11,0,.24,.13,.31,.23,1.37,1.99,1.96,4.2,1.93,6.65-.14-.01-.27,0-.39-.03-.63-.15-1.26-.34-1.89-.47-.36-.07-.5-.24-.58-.59-.32-1.23-.63-2.46-1.04-3.66-.24-.73-.65-1.4-1-2.14"></path><path class="cls-3" d="M117.82,6.19c-1.33-1.47-1.67-4.1-1.06-6.16h4.1c-.14,.29-.23,.59-.41,.83-.68,.87-.82,1.89-.72,2.92,.08,.8-.12,1.31-.88,1.65-.38,.17-.69,.5-1.03,.76"></path><path class="cls-3" d="M127.71,.01c-.26,.46-.41,.85-.66,1.16-.66,.85-1.45,1.56-2.47,1.97-.91,.36-1.83,.66-2.75,1-.32,.12-.51-.02-.53-.3-.03-.44-.03-.88,.02-1.32,.09-.87,.37-1.67,1.01-2.31,.1-.1,.25-.2,.38-.2,1.61-.01,3.23,0,5,0"></path></g></g></svg>